<svg width="100%" height="100%" viewBox="0 0 14 14" fill="none" xmlns="http://www.w3.org/2000/svg">
<g clip-path="url(#clip0_272_3032)">
<path d="M13.3 2.8H11.2V0.7C11.2 0.514348 11.1263 0.336301 10.995 0.205025C10.8637 0.0737498 10.6857 0 10.5 0L2.1 0C1.54323 0.000592943 1.00943 0.222033 0.615731 0.615731C0.222033 1.00943 0.000592943 1.54323 0 2.1L0 11.9C0.000592943 12.4568 0.222033 12.9906 0.615731 13.3843C1.00943 13.778 1.54323 13.9994 2.1 14H13.3C13.4857 14 13.6637 13.9262 13.795 13.795C13.9262 13.6637 14 13.4857 14 13.3V3.5C14 3.31435 13.9262 3.1363 13.795 3.00503C13.6637 2.87375 13.4857 2.8 13.3 2.8ZM1.4 2.1C1.4 1.91435 1.47375 1.7363 1.60503 1.60503C1.7363 1.47375 1.91435 1.4 2.1 1.4H9.8V2.8H1.4V2.1ZM12.6 12.6H2.1C1.91435 12.6 1.7363 12.5263 1.60503 12.395C1.47375 12.2637 1.4 12.0857 1.4 11.9V4.2H12.6V12.6Z" fill="#25B1FF"/>
<path d="M8.4 8.4C8.4 8.7713 8.5475 9.1274 8.81005 9.38995C9.0726 9.6525 9.4287 9.8 9.8 9.8C10.1713 9.8 10.5274 9.6525 10.79 9.38995C11.0525 9.1274 11.2 8.7713 11.2 8.4C11.2 8.21615 11.1638 8.0341 11.0934 7.86424C11.0231 7.69439 10.92 7.54005 10.79 7.41005C10.6599 7.28005 10.5056 7.17693 10.3358 7.10657C10.1659 7.03621 9.98385 7 9.8 7C9.61615 7 9.4341 7.03621 9.26424 7.10657C9.09439 7.17693 8.94005 7.28005 8.81005 7.41005C8.68005 7.54005 8.57693 7.69439 8.50657 7.86424C8.43621 8.0341 8.4 8.21615 8.4 8.4Z" fill="#25B1FF"/>
</g>
<defs>
<clipPath id="clip0_272_3032">
<rect width="14" height="14" fill="white"/>
</clipPath>
</defs>
</svg>
