<svg width="100%" height="100%" viewBox="0 0 24 24" xmlns="http://www.w3.org/2000/svg">
<g id="UI icon/share/light">
<path id="Subtract" d="M13.1617 7.13672C13.3562 7.7948 13.7154 8.3822 14.1916 8.85116L10.8346 10.8653C10.6401 10.2073 10.2809 9.61987 9.80469 9.15091L13.1617 7.13672Z"/>
<path id="Subtract_2" d="M9.80469 14.8511L13.1617 16.8653C13.3562 16.2072 13.7154 15.6198 14.1916 15.1509L10.8346 13.1367C10.6401 13.7948 10.2809 14.3822 9.80469 14.8511Z"/>
<path id="Oval (Stroke)" fill-rule="evenodd" clip-rule="evenodd" d="M17 8C18.1046 8 19 7.10457 19 6C19 4.89543 18.1046 4 17 4C15.8954 4 15 4.89543 15 6C15 7.10457 15.8954 8 17 8ZM21 6C21 8.20914 19.2091 10 17 10C14.7909 10 13 8.20914 13 6C13 3.79086 14.7909 2 17 2C19.2091 2 21 3.79086 21 6Z"/>
<path id="Oval Copy 7 (Stroke)" fill-rule="evenodd" clip-rule="evenodd" d="M17 20C18.1046 20 19 19.1046 19 18C19 16.8954 18.1046 16 17 16C15.8954 16 15 16.8954 15 18C15 19.1046 15.8954 20 17 20ZM21 18C21 20.2091 19.2091 22 17 22C14.7909 22 13 20.2091 13 18C13 15.7909 14.7909 14 17 14C19.2091 14 21 15.7909 21 18Z"/>
<path id="Oval Copy 8 (Stroke)" fill-rule="evenodd" clip-rule="evenodd" d="M7 14C8.10457 14 9 13.1046 9 12C9 10.8954 8.10457 10 7 10C5.89543 10 5 10.8954 5 12C5 13.1046 5.89543 14 7 14ZM11 12C11 14.2091 9.20914 16 7 16C4.79086 16 3 14.2091 3 12C3 9.79086 4.79086 8 7 8C9.20914 8 11 9.79086 11 12Z"/>
</g>
</svg>
