<svg width="100%" height="100%" viewBox="0 0 21 20" fill="none" xmlns="http://www.w3.org/2000/svg">
<path d="M12.1654 1.66406H5.4987C5.05667 1.66406 4.63275 1.83966 4.32019 2.15222C4.00763 2.46478 3.83203 2.8887 3.83203 3.33073V16.6641C3.83203 17.1061 4.00763 17.53 4.32019 17.8426C4.63275 18.1551 5.05667 18.3307 5.4987 18.3307H15.4987C15.9407 18.3307 16.3646 18.1551 16.6772 17.8426C16.9898 17.53 17.1654 17.1061 17.1654 16.6641V6.66406L12.1654 1.66406Z" stroke-width="1.4" stroke-linecap="round" stroke-linejoin="round"/>
<path d="M13.8346 14.1641H7.16797" stroke-width="1.4" stroke-linecap="round" stroke-linejoin="round"/>
<path d="M13.8346 10.8359H7.16797" stroke-width="1.4" stroke-linecap="round" stroke-linejoin="round"/>
<path d="M8.83464 7.5H8.0013H7.16797" stroke-width="1.4" stroke-linecap="round" stroke-linejoin="round"/>
<path d="M12.168 1.66406V6.66406H17.168" stroke-width="1.4" stroke-linecap="round" stroke-linejoin="round"/>
</svg>
