<svg width="174" height="22" viewBox="0 0 174 22" fill="none" xmlns="http://www.w3.org/2000/svg">
<path d="M27.038 16C25.358 16 24 14.684 24 13.06V9.14C24 7.516 25.358 6.2 27.038 6.2H32.918C35.13 6.2 36.936 7.95 36.936 10.12V12.08C36.936 14.236 35.13 16 32.918 16H27.038ZM27.038 8.16C26.548 8.16 26.156 8.594 26.156 9.14V13.06C26.156 13.592 26.548 14.04 27.038 14.04H32.918C33.94 14.04 34.78 13.158 34.78 12.08V10.12C34.78 9.042 33.94 8.16 32.918 8.16H27.038ZM42.7153 6.2H46.6353C48.8473 6.2 50.6533 7.95 50.6533 10.12V16H48.4973V13.06H40.8533V16H38.6973V10.12C38.6973 7.95 40.4893 6.2 42.7153 6.2ZM40.8533 10.12V11.1H48.4973V10.12C48.4973 9.042 47.6573 8.16 46.6353 8.16H42.7153C41.6793 8.16 40.8533 9.042 40.8533 10.12ZM52.4238 16V6.2H54.5798V16H52.4238ZM59.3857 16C57.7197 16 56.3477 14.684 56.3477 13.06V6.2H58.5037V13.06C58.5037 13.592 58.9097 14.04 59.3857 14.04H68.3037V16H59.3857ZM79.8742 8.16V6.2H82.0302V8.16C82.0302 10.316 80.2242 12.08 78.0122 12.08H77.1302V16H74.9742V12.08H74.0922C71.8802 12.08 70.0742 10.316 70.0742 8.16V6.2H72.2302V8.16C72.2302 9.238 73.0702 10.12 74.0922 10.12H78.0122C79.0342 10.12 79.8742 9.238 79.8742 8.16ZM94.6728 16C92.9928 16 91.6348 14.684 91.6348 13.06V9.14C91.6348 7.516 92.9928 6.2 94.6728 6.2H100.553C102.765 6.2 104.571 7.95 104.571 10.12V12.08C104.571 14.236 102.765 16 100.553 16H94.6728ZM94.6728 8.16C94.1828 8.16 93.7908 8.594 93.7908 9.14V13.06C93.7908 13.592 94.1828 14.04 94.6728 14.04H100.553C101.575 14.04 102.415 13.158 102.415 12.08V10.12C102.415 9.042 101.575 8.16 100.553 8.16H94.6728ZM106.332 16V6.2H108.488V16H106.332ZM114.274 16C112.062 16 110.256 14.236 110.256 12.08V10.12C110.256 7.95 112.062 6.2 114.274 6.2H122.212V8.16H114.274C113.252 8.16 112.412 9.042 112.412 10.12V12.08C112.412 13.158 113.252 14.04 114.274 14.04H120.154C120.644 14.04 121.036 13.592 121.036 13.06C121.036 12.514 120.644 12.08 120.154 12.08H114.176V10.12H120.154C121.834 10.12 123.192 11.436 123.192 13.06C123.192 14.684 121.834 16 120.154 16H114.274ZM127.109 12.08V13.06C127.109 13.592 127.501 14.04 127.991 14.04H136.909V16H127.991C126.311 16 124.953 14.684 124.953 13.06V9.14C124.953 7.516 126.311 6.2 127.991 6.2H136.909V8.16H127.991C127.501 8.16 127.109 8.594 127.109 9.14V10.12H135.929V12.08H127.109ZM138.68 16V14.04H148.578C149.068 14.04 149.46 13.592 149.46 13.06C149.46 12.514 149.068 12.08 148.578 12.08H141.718C140.052 12.08 138.68 10.764 138.68 9.14C138.68 7.516 140.052 6.2 141.718 6.2H150.636V8.16H141.718C141.242 8.16 140.836 8.594 140.836 9.14C140.836 9.672 141.242 10.12 141.718 10.12H148.578C150.258 10.12 151.616 11.436 151.616 13.06C151.616 14.684 150.258 16 148.578 16H138.68ZM153.377 6.2H165.333V8.16H160.433V16H158.277V8.16H153.377V6.2Z" fill="#23282D"/>
<path d="M172.5 12.766L173.143 12L173.909 12.6428L173.266 13.4088L172.5 12.766Z" fill="#25BEFF"/>
<path d="M25 20.5229H167.25L172 14.2729" stroke="#25BEFF"/>
<path d="M1.77778 7.22222L4 5H8H16V13V17L14.2222 18.7778L12 21H8H0V13V9L1.77778 7.22222Z" fill="#25BEFF"/>
<path d="M11.5 8H4.5C4.22386 8 4 8.22386 4 8.5V17.5C4 17.7761 4.22386 18 4.5 18H11.5C11.7761 18 12 17.7761 12 17.5V8.5C12 8.22386 11.7761 8 11.5 8Z" stroke="white" stroke-linecap="square"/>
<path d="M9.5 12.75L8.63387 11.8839M8.63387 11.8839C8.8601 11.6577 9 11.3452 9 11C9 10.3097 8.44035 9.75 7.75 9.75C7.05965 9.75 6.5 10.3097 6.5 11C6.5 11.6903 7.05965 12.25 7.75 12.25C8.09517 12.25 8.40767 12.1101 8.63387 11.8839Z" stroke="white" stroke-linecap="square"/>
<path d="M6.25 14.5H9.75" stroke="white" stroke-linecap="square"/>
<path d="M6.25 16H8" stroke="white" stroke-linecap="square"/>
</svg>
