<svg width="100%" height="100%" viewBox="0 0 68 13" fill="none" xmlns="http://www.w3.org/2000/svg">
<g id="Group 427321242">
<g id="Group">
<g id="Group_2">
<path id="Vector" d="M19.5744 6.34306C19.5744 7.31452 19.3528 8.24153 18.9668 9.06696C18.6693 9.69555 18.2769 10.2606 17.8022 10.7559C17.7769 10.7813 17.7516 10.813 17.7199 10.8384C16.5744 11.9877 14.9921 12.6988 13.2453 12.6988H8.82124C8.49213 12.6988 8.20099 12.4639 8.1377 12.1401C8.11871 12.0448 8.11871 11.9432 8.1377 11.8543C8.20099 11.5369 8.47947 11.2893 8.82757 11.2893H9.80225C10.1883 11.2893 10.5048 10.9718 10.5048 10.5845C10.5048 10.3876 10.4225 10.2099 10.2959 10.0829C10.1693 9.95588 9.99212 9.87968 9.79592 9.87968H8.25795C8.21365 9.87968 8.17567 9.87333 8.13137 9.86698C7.85289 9.81619 7.63137 9.60666 7.56808 9.32093C7.55542 9.27014 7.54909 9.21934 7.54909 9.16855C7.54909 8.78758 7.85289 8.46376 8.25162 8.46376H13.2389C14.4035 8.46376 15.3465 7.5177 15.3465 6.34941C15.3465 5.18112 14.4035 4.23505 13.2389 4.23505H7.0934C6.75796 4.23505 6.47315 4.00013 6.40353 3.66996C6.39087 3.61916 6.39087 3.57472 6.39087 3.53027C6.39087 3.47948 6.3972 3.43503 6.40353 3.38423C6.46682 3.07311 6.7453 2.82549 7.0934 2.82549H9.78959C10.1757 2.82549 10.4921 2.50802 10.4921 2.1207C10.4921 1.92387 10.4098 1.74609 10.2833 1.6191C10.1567 1.49211 9.97946 1.40957 9.78326 1.40957H6.51745C6.47315 1.40957 6.43517 1.40322 6.3972 1.39687C6.11239 1.34607 5.88454 1.13019 5.82125 0.838121C5.80859 0.787326 5.80859 0.742881 5.80859 0.698435C5.80859 0.400013 5.99847 0.139686 6.27062 0.0444447C6.34657 0.0190471 6.42252 0 6.50479 0H13.2453C13.9921 0 14.7326 0.120639 15.4351 0.380965C16.9668 0.952411 18.2199 2.108 18.9288 3.56837C19.3465 4.41919 19.5744 5.35255 19.5744 6.34306Z" fill="#4128D1"/>
<g id="Group_3">
<path id="Vector_2" d="M3.19862 2.83144H4.60368C4.98976 2.83144 5.30621 2.51397 5.30621 2.12666C5.30621 1.73935 4.98976 1.42188 4.60368 1.42188H3.19862C2.81255 1.42188 2.49609 1.73935 2.49609 2.12666C2.49609 2.51397 2.81255 2.83144 3.19862 2.83144Z" fill="#35DBC0"/>
</g>
<g id="Group_4">
<path id="Vector_3" d="M1.75316 2.12666C1.75316 1.73935 1.4367 1.42188 1.05063 1.42188H0.702529C0.316455 1.42188 0 1.73935 0 2.12666C0 2.51397 0.316455 2.83144 0.702529 2.83144H1.05063C1.4367 2.83144 1.75316 2.51397 1.75316 2.12666Z" fill="#35DBC0"/>
</g>
<g id="Group_5">
<path id="Vector_4" d="M5.96968 9.87891H3.15956C2.77349 9.87891 2.45703 10.1964 2.45703 10.5837C2.45703 10.971 2.77349 11.2885 3.15956 11.2885H5.96968C6.35575 11.2885 6.6722 10.971 6.6722 10.5837C6.6722 10.19 6.36208 9.87891 5.96968 9.87891Z" fill="#35DBC0"/>
</g>
<g id="Group_6">
<path id="Vector_5" d="M3.96246 8.46816H4.66499C5.05106 8.46816 5.36752 8.15069 5.36752 7.76338C5.36752 7.37606 5.05106 7.05859 4.66499 7.05859H3.96879C3.96879 7.05859 3.96879 7.05859 3.96246 7.05859H1.85487C1.4688 7.05859 1.15234 7.37606 1.15234 7.76338C1.15234 8.15069 1.4688 8.46816 1.85487 8.46816H3.96246Z" fill="#35DBC0"/>
</g>
<g id="Group_7">
<path id="Vector_6" d="M4.54178 4.24219H3.83925C3.45317 4.24219 3.13672 4.55966 3.13672 4.94697C3.13672 5.33429 3.45317 5.65176 3.83925 5.65176H4.54178C4.54811 5.65176 4.54811 5.65176 4.54811 5.65176H5.24431C5.63038 5.65176 5.94683 5.33429 5.94683 4.94697C5.94683 4.55966 5.63038 4.24219 5.24431 4.24219H4.54178Z" fill="#35DBC0"/>
</g>
<g id="Group_8">
<path id="Vector_7" d="M3.19862 2.83144H4.60368C4.98976 2.83144 5.30621 2.51397 5.30621 2.12666C5.30621 1.73935 4.98976 1.42188 4.60368 1.42188H3.19862C2.81255 1.42188 2.49609 1.73935 2.49609 2.12666C2.49609 2.51397 2.81255 2.83144 3.19862 2.83144Z" fill="#35DBC0"/>
</g>
<g id="Group_9">
<path id="Vector_8" d="M4.54178 4.24219H3.83925C3.45317 4.24219 3.13672 4.55966 3.13672 4.94697C3.13672 5.33429 3.45317 5.65176 3.83925 5.65176H4.54178C4.54811 5.65176 4.54811 5.65176 4.54811 5.65176H5.24431C5.63038 5.65176 5.94683 5.33429 5.94683 4.94697C5.94683 4.55966 5.63038 4.24219 5.24431 4.24219H4.54178Z" fill="#35DBC0"/>
</g>
</g>
</g>
<g id="Group_10">
<path id="Vector_9" d="M30.7031 7.39719C30.6208 7.77181 30.4816 8.18452 30.298 8.62898C30.1082 9.07344 29.836 9.48615 29.4752 9.86077C29.1145 10.2354 28.6525 10.5529 28.0955 10.8068C27.5322 11.0608 26.8423 11.1878 26.0196 11.1878H24.1778C23.8107 11.1878 23.5069 11.1243 23.2538 10.991C23.0006 10.8576 22.7981 10.6989 22.6462 10.5021C22.4943 10.3116 22.3803 10.1084 22.3107 9.89886C22.2411 9.68933 22.2031 9.5052 22.2031 9.34011V3.13039C22.2031 2.97166 22.2411 2.78117 22.3107 2.56529C22.3803 2.34941 22.4943 2.14623 22.6462 1.9621C22.7981 1.77162 23.0069 1.61288 23.2538 1.48589C23.5069 1.35256 23.817 1.28906 24.1778 1.28906H26.0196C26.6841 1.28906 27.2664 1.3716 27.7601 1.54304C28.2537 1.71447 28.6841 1.9367 29.0449 2.21608C29.4056 2.49545 29.6968 2.81927 29.9309 3.17484C30.1588 3.5304 30.3423 3.89867 30.4752 4.27328C30.6082 4.6479 30.7031 5.02252 30.7537 5.38443C30.8044 5.7527 30.8297 6.07652 30.8297 6.36859C30.8297 6.54002 30.817 6.71146 30.7917 6.88289C30.7664 7.06068 30.7411 7.23211 30.7031 7.39719ZM24.1715 9.41631C24.1715 9.42266 24.1715 9.429 24.1778 9.429C24.1841 9.429 24.1841 9.43535 24.1841 9.4417H26.0069C26.6082 9.4417 27.0955 9.32107 27.4689 9.07344C27.8423 8.83216 28.1335 8.53374 28.3423 8.18452C28.5512 7.8353 28.6904 7.47339 28.7664 7.09242C28.8423 6.71146 28.8803 6.38129 28.8803 6.10192C28.8803 6.00033 28.874 5.90508 28.8613 5.81619C28.8487 5.7273 28.8297 5.63206 28.8107 5.53047C28.7664 5.28919 28.6841 5.01617 28.5702 4.73044C28.4563 4.43837 28.298 4.17169 28.0828 3.91772C27.874 3.67009 27.5955 3.46056 27.2601 3.28913C26.9246 3.11769 26.5069 3.03515 26.0132 3.03515H24.1905C24.1841 3.0415 24.1778 3.0542 24.1778 3.06055C24.1778 3.0669 24.1778 3.0796 24.1715 3.0796C24.1651 3.08595 24.1651 3.09229 24.1651 3.09864L24.1525 3.12404V9.33376L24.1651 9.34646C24.1651 9.35281 24.1651 9.36551 24.1715 9.36551C24.1715 9.38456 24.1715 9.39726 24.1715 9.41631Z" fill="#000B21"/>
<path id="Vector_10" d="M40.0955 9.4417V11.1878H34.6778C34.3107 11.1878 34.0069 11.1243 33.7538 10.991C33.5006 10.8576 33.2981 10.6989 33.1462 10.5021C32.9943 10.3116 32.8803 10.1084 32.8107 9.89886C32.7411 9.68933 32.7031 9.5052 32.7031 9.34011V3.13039C32.7031 2.97166 32.7411 2.78117 32.8107 2.56529C32.8803 2.34941 32.9943 2.14623 33.1462 1.9621C33.2981 1.77162 33.5069 1.61288 33.7538 1.48589C34.0069 1.35256 34.317 1.28906 34.6778 1.28906H40.0955V3.03515H34.6905L34.6651 3.06055C34.6651 3.0669 34.6651 3.0796 34.6588 3.0796C34.6525 3.08595 34.6525 3.09229 34.6525 3.09864L34.6398 3.12404V5.37808H39.7347V7.12417H34.6398V9.33376L34.6525 9.34646C34.6525 9.35281 34.6525 9.36551 34.6588 9.36551C34.6651 9.37186 34.6651 9.38456 34.6651 9.40361L34.6905 9.429H40.0955V9.4417Z" fill="#000B21"/>
<path id="Vector_11" d="M43.6603 7.13052V11.1878H41.7109V3.13039C41.7109 2.97166 41.7489 2.78117 41.8185 2.56529C41.8881 2.34941 42.0021 2.14623 42.1603 1.9621C42.3185 1.77162 42.5211 1.61288 42.7679 1.48589C43.0147 1.35256 43.3249 1.28906 43.6856 1.28906H48.7932V3.03515H43.6983C43.6919 3.0415 43.6856 3.0542 43.6856 3.06055C43.6856 3.0669 43.6856 3.0796 43.6793 3.0796C43.673 3.08595 43.673 3.09229 43.673 3.09864L43.6603 3.12404V5.37808H48.1919V7.12417H43.6603V7.13052Z" fill="#000B21"/>
<path id="Vector_12" d="M57.7791 9.4417V11.1878H52.3614C51.9943 11.1878 51.6905 11.1243 51.4373 10.991C51.1842 10.8576 50.9817 10.6989 50.8298 10.5021C50.6779 10.3116 50.5639 10.1084 50.4943 9.89886C50.4247 9.68933 50.3867 9.5052 50.3867 9.34011V3.13039C50.3867 2.97166 50.4247 2.78117 50.4943 2.56529C50.5639 2.34941 50.6779 2.14623 50.8298 1.9621C50.9817 1.77162 51.1905 1.61288 51.4373 1.48589C51.6905 1.35256 52.0006 1.28906 52.3614 1.28906H57.7791V3.03515H52.3741L52.3487 3.06055C52.3487 3.0669 52.3487 3.0796 52.3424 3.0796C52.3361 3.08595 52.3361 3.09229 52.3361 3.09864L52.3234 3.12404V5.37808H57.4183V7.12417H52.3234V9.33376L52.3361 9.34646C52.3361 9.35281 52.3361 9.36551 52.3424 9.36551C52.3487 9.37186 52.3487 9.38456 52.3487 9.40361L52.3741 9.429H57.7791V9.4417Z" fill="#000B21"/>
<path id="Vector_13" d="M67.875 7.39719C67.7927 7.77181 67.6535 8.18452 67.4699 8.62898C67.28 9.07344 67.0079 9.48615 66.6471 9.86077C66.2864 10.2354 65.8243 10.5529 65.2674 10.8068C64.7041 11.0608 64.0142 11.1878 63.1914 11.1878H61.3497C60.9826 11.1878 60.6788 11.1243 60.4256 10.991C60.1725 10.8576 59.9699 10.6989 59.818 10.5021C59.6661 10.3116 59.5522 10.1084 59.4826 9.89886C59.413 9.68933 59.375 9.5052 59.375 9.34011V3.13039C59.375 2.97166 59.413 2.78117 59.4826 2.56529C59.5522 2.34941 59.6661 2.14623 59.818 1.9621C59.9699 1.77162 60.1788 1.61288 60.4256 1.48589C60.6788 1.35256 60.9889 1.28906 61.3497 1.28906H63.1914C63.856 1.28906 64.4383 1.3716 64.9319 1.54304C65.4256 1.71447 65.856 1.9367 66.2167 2.21608C66.5775 2.49545 66.8686 2.81927 67.1028 3.17484C67.3307 3.5304 67.5142 3.89867 67.6471 4.27328C67.78 4.6479 67.875 5.02252 67.9256 5.38443C67.9762 5.7527 68.0016 6.07652 68.0016 6.36859C68.0016 6.54002 67.9889 6.71146 67.9636 6.88289C67.9446 7.06068 67.9129 7.23211 67.875 7.39719ZM61.3433 9.41631C61.3433 9.42266 61.3433 9.429 61.3497 9.429C61.356 9.429 61.356 9.43535 61.356 9.4417H63.1788C63.78 9.4417 64.2674 9.32107 64.6408 9.07344C65.0142 8.83216 65.3054 8.53374 65.5142 8.18452C65.7231 7.8353 65.8623 7.47339 65.9383 7.09242C66.0142 6.71146 66.0522 6.38129 66.0522 6.10192C66.0522 6.00033 66.0459 5.90508 66.0332 5.81619C66.0205 5.7273 66.0016 5.63206 65.9826 5.53047C65.9383 5.28919 65.856 5.01617 65.7421 4.73044C65.6281 4.43837 65.4699 4.17169 65.2547 3.91772C65.0459 3.67009 64.7674 3.46056 64.4319 3.28913C64.0965 3.11769 63.6788 3.03515 63.1851 3.03515H61.3623C61.356 3.0415 61.3497 3.0542 61.3497 3.06055C61.3497 3.0669 61.3497 3.0796 61.3433 3.0796C61.337 3.08595 61.337 3.09229 61.337 3.09864L61.3244 3.12404V9.33376L61.337 9.34646C61.337 9.35281 61.337 9.36551 61.3433 9.36551C61.3433 9.38456 61.3433 9.39726 61.3433 9.41631Z" fill="#000B21"/>
</g>
</g>
</svg>
