<svg width="40" height="40" viewBox="0 0 40 40" xmlns="http://www.w3.org/2000/svg">
<g clip-path="url(#clip0_28804_169194)">
<path d="M40 20C40 8.9543 31.0457 0 20 0C8.9543 0 0 8.9543 0 20C0 31.0457 8.9543 40 20 40C31.0457 40 40 31.0457 40 20Z" />
<path fill-rule="evenodd" clip-rule="evenodd" d="M27 28H13C12.4477 28 12 28.4477 12 29C12 29.5523 12.4477 30 13 30H27C27.5523 30 28 29.5523 28 29C28 28.4477 27.5523 28 27 28ZM19.29 25.71C19.3851 25.801 19.4972 25.8724 19.62 25.92C19.862 26.027 20.138 26.027 20.38 25.92C20.5028 25.8724 20.6149 25.801 20.71 25.71L24.71 21.71C25.1021 21.3179 25.1021 20.6821 24.71 20.29C24.3179 19.8979 23.6821 19.8979 23.29 20.29L21 22.59V11C21 10.4477 20.5523 10 20 10C19.4477 10 19 10.4477 19 11V22.59L16.71 20.29C16.4563 20.0363 16.0866 19.9373 15.7401 20.0301C15.3936 20.123 15.123 20.3936 15.0301 20.7401C14.9373 21.0866 15.0363 21.4563 15.29 21.71L19.29 25.71Z" fill="#6F767E"/>
</g>
<defs>
<clipPath id="clip0_28804_169194">
<rect width="40" height="40" fill="white"/>
</clipPath>
</defs>
</svg>
