<svg width="40" height="40" viewBox="0 0 40 40" fill="none" xmlns="http://www.w3.org/2000/svg">
<g id="telegram 1" clip-path="url(#clip0_28804_169201)">
<circle id="Ellipse 597" cx="19.9984" cy="20.2016" r="14.6" fill="white"/>
<path id="Vector" d="M20 0C14.6957 0 9.60859 2.10714 5.85786 5.85786C2.10714 9.60859 0 14.6957 0 20C0 25.3043 2.10714 30.3914 5.85786 34.1421C9.60859 37.8929 14.6957 40 20 40C25.3043 40 30.3914 37.8929 34.1421 34.1421C37.8929 30.3914 40 25.3043 40 20C40 14.6957 37.8929 9.60859 34.1421 5.85786C30.3914 2.10714 25.3043 0 20 0ZM29.822 13.701L26.54 29.17C26.298 30.267 25.645 30.533 24.734 30.018L19.734 26.332L17.322 28.654C17.2033 28.8082 17.0505 28.9328 16.8757 29.0181C16.7008 29.1035 16.5086 29.1472 16.314 29.146L16.667 24.058L25.933 15.687C26.337 15.334 25.845 15.13 25.312 15.486L13.862 22.696L8.922 21.156C7.848 20.816 7.825 20.082 9.147 19.566L28.429 12.132C29.331 11.807 30.118 12.348 29.822 13.702V13.701Z" fill="#2096D4"/>
</g>
<defs>
<clipPath id="clip0_28804_169201">
<rect width="40" height="40" fill="white"/>
</clipPath>
</defs>
</svg>
