<svg width="100%" height="100%" viewBox="0 0 32 32" fill="none" xmlns="http://www.w3.org/2000/svg">
<g id="Group 427321180">
<circle id="Ellipse 594" cx="16" cy="16" r="16" fill="#F4F6F9"/>
<g id="Group 427321312">
<circle id="Ellipse 594_2" cx="16" cy="16" r="16" fill="#F4F6F9"/>
<path id="arrow-growth" fill-rule="evenodd" clip-rule="evenodd" d="M25.9219 10.62C25.8204 10.3757 25.6262 10.1815 25.3819 10.08C25.2617 10.0288 25.1326 10.0016 25.0019 10H20.0019C19.4496 10 19.0019 10.4477 19.0019 11C19.0019 11.5523 19.4496 12 20.0019 12H22.5919L17.0019 17.59L13.7119 14.29C13.5241 14.1007 13.2685 13.9942 13.0019 13.9942C12.7353 13.9942 12.4797 14.1007 12.2919 14.29L6.29189 20.29C6.10258 20.4778 5.99609 20.7334 5.99609 21C5.99609 21.2666 6.10258 21.5222 6.29189 21.71C6.47966 21.8993 6.73525 22.0058 7.00189 22.0058C7.26853 22.0058 7.52413 21.8993 7.71189 21.71L13.0019 16.41L16.2919 19.71C16.4797 19.8993 16.7353 20.0058 17.0019 20.0058C17.2685 20.0058 17.5241 19.8993 17.7119 19.71L24.0019 13.41V16C24.0019 16.5523 24.4496 17 25.0019 17C25.5542 17 26.0019 16.5523 26.0019 16V11C26.0003 10.8693 25.9731 10.7402 25.9219 10.62Z" fill="#6F767E"/>
</g>
</g>
</svg>
