<svg width="40" height="40" viewBox="0 0 40 40" fill="none" xmlns="http://www.w3.org/2000/svg">
<g id="Discord" clip-path="url(#clip0_28804_169197)">
<path id="Vector" d="M40 20C40 8.9543 31.0457 0 20 0C8.9543 0 0 8.9543 0 20C0 31.0457 8.9543 40 20 40C31.0457 40 40 31.0457 40 20Z" fill="#5865F2"/>
<path id="Vector_2" d="M30.0319 13.1484C28.1971 11.6805 25.9952 10.9466 23.6711 10.8242L23.3041 11.1912C25.3836 11.6805 27.2185 12.6591 28.931 14.0046C26.8515 12.9037 24.5273 12.1698 22.0808 11.9251C21.3469 11.8028 20.7352 11.8028 20.0013 11.8028C19.2674 11.8028 18.6557 11.8028 17.9218 11.9251C15.4753 12.1698 13.1511 12.9037 11.0716 14.0046C12.7841 12.6591 14.6191 11.6805 16.6986 11.1912L16.3316 10.8242C14.0074 10.9466 11.8056 11.6805 9.97072 13.1484C7.89121 17.0628 6.79029 21.4665 6.66797 25.9924C8.5028 27.9496 11.0716 29.1729 13.7628 29.1729C13.7628 29.1729 14.6191 28.1943 15.2306 27.338C13.6405 26.9711 12.1726 26.1147 11.194 24.7692C12.0502 25.2585 12.9065 25.7478 13.7628 26.1147C14.8637 26.6041 15.9646 26.8487 17.0656 27.0934C18.0441 27.2156 19.0227 27.338 20.0013 27.338C20.9799 27.338 21.9585 27.2156 22.9371 27.0934C24.038 26.8487 25.1389 26.6041 26.2398 26.1147C27.0961 25.7478 27.9524 25.2585 28.8086 24.7692C27.8301 26.1147 26.3621 26.9711 24.772 27.338C25.3836 28.1943 26.2398 29.1729 26.2398 29.1729C28.931 29.1729 31.4998 27.9496 33.3346 25.9924C33.2123 21.4665 32.1114 17.0628 30.0319 13.1484ZM15.9646 23.7906C14.7414 23.7906 13.6405 22.6896 13.6405 21.3441C13.6405 19.9986 14.7414 18.8976 15.9646 18.8976C17.1879 18.8976 18.2888 19.9986 18.2888 21.3441C18.2888 22.6896 17.1879 23.7906 15.9646 23.7906ZM24.038 23.7906C22.8147 23.7906 21.7138 22.6896 21.7138 21.3441C21.7138 19.9986 22.8147 18.8976 24.038 18.8976C25.2612 18.8976 26.3621 19.9986 26.3621 21.3441C26.3621 22.6896 25.2612 23.7906 24.038 23.7906Z" fill="white"/>
</g>
<defs>
<clipPath id="clip0_28804_169197">
<rect width="40" height="40" fill="white"/>
</clipPath>
</defs>
</svg>
