<svg width="100%" height="100%" viewBox="0 0 88 22" fill="none" xmlns="http://www.w3.org/2000/svg">
<path d="M24 16V9.14C24 7.516 25.358 6.2 27.038 6.2H33.898C35.578 6.2 36.936 7.516 36.936 9.14V10.12C36.936 11.744 35.578 13.06 33.898 13.06H26.156V16H24ZM33.898 11.1C34.388 11.1 34.78 10.652 34.78 10.12V9.14C34.78 8.594 34.388 8.16 33.898 8.16H27.038C26.548 8.16 26.156 8.594 26.156 9.14V11.1H33.898ZM42.7153 16C40.5033 16 38.6973 14.236 38.6973 12.08V10.12C38.6973 7.95 40.5033 6.2 42.7153 6.2H47.6153C49.8413 6.2 51.6333 7.95 51.6333 10.12V12.08C51.6333 14.236 49.8413 16 47.6153 16H42.7153ZM42.7153 8.16C41.6933 8.16 40.8533 9.042 40.8533 10.12V12.08C40.8533 13.158 41.6933 14.04 42.7153 14.04H47.6153C48.6513 14.04 49.4773 13.158 49.4773 12.08V10.12C49.4773 9.042 48.6513 8.16 47.6153 8.16H42.7153ZM53.3945 16V14.04H63.2925C63.7825 14.04 64.1745 13.592 64.1745 13.06C64.1745 12.514 63.7825 12.08 63.2925 12.08H56.4325C54.7665 12.08 53.3945 10.764 53.3945 9.14C53.3945 7.516 54.7665 6.2 56.4325 6.2H65.3505V8.16H56.4325C55.9565 8.16 55.5505 8.594 55.5505 9.14C55.5505 9.672 55.9565 10.12 56.4325 10.12H63.2925C64.9725 10.12 66.3305 11.436 66.3305 13.06C66.3305 14.684 64.9725 16 63.2925 16H53.3945ZM68.0918 6.2H80.0478V8.16H75.1478V16H72.9918V8.16H68.0918V6.2Z" fill="#23282D"/>
<path d="M86.3572 12.7661L86.9999 12L87.766 12.6428L87.1232 13.4088L86.3572 12.7661Z" fill="#25BEFF"/>
<path d="M25 20.5229H81.25L86 14.2729" stroke="#25BEFF"/>
<path d="M1.77778 7.22222L4 5H8H16V13V17L14.2222 18.7778L12 21H8H0V13V9L1.77778 7.22222Z" fill="#25BEFF"/>
<path d="M13 8.75H3V16.25H4.75V17.5L7.25 16.25H13V8.75Z" stroke="white" stroke-linecap="square"/>
<path d="M9.75 11V11.25" stroke="white" stroke-linecap="square"/>
<path d="M6.25 11V11.25" stroke="white" stroke-linecap="square"/>
<path d="M9.75 13.25C9.75 13.25 9.25 14.25 8 14.25C6.75 14.25 6.25 13.25 6.25 13.25" stroke="white" stroke-linecap="square"/>
</svg>
