<svg width="100%" height="100%" viewBox="0 0 32 32" fill="none" xmlns="http://www.w3.org/2000/svg">
<g id="Group 427321180">
<circle id="Ellipse 594" cx="16" cy="16" r="16" fill="#F4F6F9"/>
<g id="Group 427321321">
<circle id="Ellipse 594_2" cx="16" cy="16" r="16" fill="#F4F6F9"/>
<path id="arrow-growth" fill-rule="evenodd" clip-rule="evenodd" d="M25.9219 21.38C25.8204 21.6243 25.6262 21.8185 25.3819 21.92C25.2617 21.9712 25.1326 21.9984 25.0019 22L20.0019 22C19.4496 22 19.0019 21.5523 19.0019 21C19.0019 20.4477 19.4496 20 20.0019 20L22.5919 20L17.0019 14.41L13.7119 17.71C13.5241 17.8993 13.2685 18.0058 13.0019 18.0058C12.7353 18.0058 12.4797 17.8993 12.2919 17.71L6.29189 11.71C6.10258 11.5222 5.99609 11.2666 5.99609 11C5.99609 10.7334 6.10258 10.4778 6.29189 10.29C6.47966 10.1007 6.73525 9.9942 7.00189 9.9942C7.26853 9.9942 7.52412 10.1007 7.71189 10.29L13.0019 15.59L16.2919 12.29C16.4797 12.1007 16.7353 11.9942 17.0019 11.9942C17.2685 11.9942 17.5241 12.1007 17.7119 12.29L24.0019 18.59L24.0019 16C24.0019 15.4477 24.4496 15 25.0019 15C25.5542 15 26.0019 15.4477 26.0019 16L26.0019 21C26.0003 21.1307 25.9731 21.2598 25.9219 21.38Z" fill="#6F767E"/>
</g>
</g>
</svg>
