<svg width="100%" height="100%" viewBox="0 0 168 22" fill="none" xmlns="http://www.w3.org/2000/svg">
<path d="M24 6.2H35.956V8.16H31.056V16H28.9V8.16H24V6.2ZM41.7446 16C39.5326 16 37.7266 14.236 37.7266 12.08V10.12C37.7266 7.95 39.5326 6.2 41.7446 6.2H46.6446C48.8706 6.2 50.6626 7.95 50.6626 10.12V12.08C50.6626 14.236 48.8706 16 46.6446 16H41.7446ZM41.7446 8.16C40.7226 8.16 39.8826 9.042 39.8826 10.12V12.08C39.8826 13.158 40.7226 14.04 41.7446 14.04H46.6446C47.6806 14.04 48.5066 13.158 48.5066 12.08V10.12C48.5066 9.042 47.6806 8.16 46.6446 8.16H41.7446ZM64.3798 6.2V8.16C64.3798 9.322 63.8478 10.372 63.0078 11.1C63.8478 11.814 64.3798 12.864 64.3798 14.04V16H62.2238V14.04C62.2238 12.962 61.3838 12.08 60.3618 12.08H54.5798V16H52.4238V6.2H54.5798V10.12H60.3618C61.3838 10.12 62.2238 9.238 62.2238 8.16V6.2H64.3798ZM68.3064 12.08V13.06C68.3064 13.592 68.6984 14.04 69.1884 14.04H78.1064V16H69.1884C67.5084 16 66.1504 14.684 66.1504 13.06V9.14C66.1504 7.516 67.5084 6.2 69.1884 6.2H78.1064V8.16H69.1884C68.6984 8.16 68.3064 8.594 68.3064 9.14V10.12H77.1264V12.08H68.3064ZM89.775 16C87.563 16 85.757 14.236 85.757 12.08V10.12C85.757 9.042 84.917 8.16 83.895 8.16H82.915C82.425 8.16 82.033 8.594 82.033 9.14V16H79.877V9.14C79.877 7.516 81.235 6.2 82.915 6.2H83.895C86.107 6.2 87.913 7.95 87.913 10.12V12.08C87.913 13.158 88.753 14.04 89.775 14.04C90.265 14.04 90.657 13.592 90.657 13.06V6.2H92.813V13.06C92.813 14.684 91.455 16 89.775 16ZM112.306 16C110.094 16 108.288 14.236 108.288 12.08V10.12C108.288 9.042 107.448 8.16 106.426 8.16H105.446C104.956 8.16 104.564 8.594 104.564 9.14V16H102.408V9.14C102.408 7.516 103.766 6.2 105.446 6.2H106.426C108.638 6.2 110.444 7.95 110.444 10.12V12.08C110.444 13.158 111.284 14.04 112.306 14.04C112.796 14.04 113.188 13.592 113.188 13.06V6.2H115.344V13.06C115.344 14.684 113.986 16 112.306 16ZM119.261 12.08V13.06C119.261 13.592 119.653 14.04 120.143 14.04H129.061V16H120.143C118.463 16 117.105 14.684 117.105 13.06V9.14C117.105 7.516 118.463 6.2 120.143 6.2H129.061V8.16H120.143C119.653 8.16 119.261 8.594 119.261 9.14V10.12H128.081V12.08H119.261ZM142.592 12.08V6.2H144.748V12.08C144.748 14.236 142.942 16 140.73 16H139.75C138.994 16 138.322 15.734 137.79 15.3C137.258 15.734 136.572 16 135.83 16H134.85C132.638 16 130.832 14.236 130.832 12.08V6.2H132.988V12.08C132.988 13.158 133.814 14.04 134.85 14.04H135.83C136.306 14.04 136.712 13.592 136.712 13.06V6.2H138.868V13.06C138.868 13.592 139.26 14.04 139.75 14.04H140.73C141.752 14.04 142.592 13.158 142.592 12.08ZM146.514 16V14.04H156.412C156.902 14.04 157.294 13.592 157.294 13.06C157.294 12.514 156.902 12.08 156.412 12.08H149.552C147.886 12.08 146.514 10.764 146.514 9.14C146.514 7.516 147.886 6.2 149.552 6.2H158.47V8.16H149.552C149.076 8.16 148.67 8.594 148.67 9.14C148.67 9.672 149.076 10.12 149.552 10.12H156.412C158.092 10.12 159.45 11.436 159.45 13.06C159.45 14.684 158.092 16 156.412 16H146.514Z" fill="#23282D"/>
<path d="M166.5 12.766L167.143 12L167.909 12.6428L167.266 13.4088L166.5 12.766Z" fill="#25BEFF"/>
<path d="M25 20.5229H161.25L166 14.2729" stroke="#25BEFF"/>
<path d="M1.77778 7.22222L4 5H8H16V13V17L14.2222 18.7778L12 21H8H0V13V9L1.77778 7.22222Z" fill="#25BEFF"/>
<path d="M11.5 8H4.5C4.22386 8 4 8.22386 4 8.5V17.5C4 17.7761 4.22386 18 4.5 18H11.5C11.7761 18 12 17.7761 12 17.5V8.5C12 8.22386 11.7761 8 11.5 8Z" stroke="white" stroke-linecap="square"/>
<path d="M9.5 12.75L8.63387 11.8839M8.63387 11.8839C8.8601 11.6577 9 11.3452 9 11C9 10.3097 8.44035 9.75 7.75 9.75C7.05965 9.75 6.5 10.3097 6.5 11C6.5 11.6903 7.05965 12.25 7.75 12.25C8.09517 12.25 8.40767 12.1101 8.63387 11.8839Z" stroke="white" stroke-linecap="square"/>
<path d="M6.25 14.5H9.75" stroke="white" stroke-linecap="square"/>
<path d="M6.25 16H8" stroke="white" stroke-linecap="square"/>
</svg>
