<svg width="40" height="40" viewBox="0 0 40 40" fill="none" xmlns="http://www.w3.org/2000/svg">
<g clip-path="url(#clip0_28804_169188)">
<path d="M40 20C40 8.9543 31.0457 0 20 0C8.9543 0 0 8.9543 0 20C0 31.0457 8.9543 40 20 40C31.0457 40 40 31.0457 40 20Z" fill="black"/>
<path d="M26.7357 9.39844H30.3296L22.478 18.3723L31.7148 30.5838H24.4825L18.8179 23.1776L12.3362 30.5838H8.74016L17.1382 20.9852L8.27734 9.39844H15.6933L20.8136 16.168L26.7357 9.39844ZM25.4744 28.4326H27.4658L14.6112 11.4366H12.4742L25.4744 28.4326Z" fill="white"/>
</g>
<defs>
<clipPath id="clip0_28804_169188">
<rect width="40" height="40" fill="white"/>
</clipPath>
</defs>
</svg>
