<svg width="100%" height="100%" viewBox="0 0 20 20" fill="none" xmlns="http://www.w3.org/2000/svg">
<path fill-rule="evenodd" clip-rule="evenodd" d="M10 0.832031C10.9205 0.832031 11.6667 1.57822 11.6667 2.4987H15C16.3807 2.4987 17.5 3.61799 17.5 4.9987V15.832C17.5 17.2127 16.3807 18.332 15 18.332H5C3.61929 18.332 2.5 17.2127 2.5 15.832V4.9987C2.5 3.61799 3.61929 2.4987 5 2.4987H8.33333C8.33333 1.57822 9.07953 0.832031 10 0.832031ZM6.66667 4.16536H5C4.53976 4.16536 4.16667 4.53846 4.16667 4.9987V15.832C4.16667 16.2923 4.53976 16.6654 5 16.6654H15C15.4602 16.6654 15.8333 16.2923 15.8333 15.832V4.9987C15.8333 4.53846 15.4602 4.16536 15 4.16536H13.3333V4.9987C13.3333 5.45894 12.9602 5.83203 12.5 5.83203H7.5C7.03976 5.83203 6.66667 5.45894 6.66667 4.9987V4.16536Z" fill="#4128D1"/>
<path fill-rule="evenodd" clip-rule="evenodd" d="M5.83203 9.16536C5.83203 8.70513 6.20513 8.33203 6.66536 8.33203L13.332 8.33203C13.7923 8.33203 14.1654 8.70513 14.1654 9.16536C14.1654 9.6256 13.7923 9.9987 13.332 9.9987L6.66536 9.9987C6.20513 9.9987 5.83203 9.6256 5.83203 9.16536Z" fill="#4128D1"/>
<path fill-rule="evenodd" clip-rule="evenodd" d="M5.83203 12.5013C5.83203 12.0411 6.20513 11.668 6.66536 11.668L9.9987 11.668C10.4589 11.668 10.832 12.0411 10.832 12.5013C10.832 12.9615 10.4589 13.3346 9.9987 13.3346L6.66536 13.3346C6.20513 13.3346 5.83203 12.9615 5.83203 12.5013Z" fill="#4128D1"/>
</svg>
