<svg width="100%" height="100%" viewBox="0 0 20 20" fill="none" xmlns="http://www.w3.org/2000/svg">
<path fill-rule="evenodd" clip-rule="evenodd" d="M14.9974 9.01406C14.5372 9.01406 14.1641 9.38716 14.1641 9.8474V15.8307C14.1641 16.291 13.791 16.6641 13.3307 16.6641H4.16406C3.70383 16.6641 3.33073 16.291 3.33073 15.8307V6.66406C3.33073 6.20383 3.70383 5.83073 4.16406 5.83073H10.1474C10.6076 5.83073 10.9807 5.45763 10.9807 4.9974C10.9807 4.53716 10.6076 4.16406 10.1474 4.16406H4.16406C2.78335 4.16406 1.66406 5.28335 1.66406 6.66406V15.8307C1.66406 17.2114 2.78335 18.3307 4.16406 18.3307H13.3307C14.7114 18.3307 15.8307 17.2114 15.8307 15.8307V9.8474C15.8307 9.38716 15.4576 9.01406 14.9974 9.01406ZM18.2641 2.18073C18.1795 1.9771 18.0177 1.81529 17.8141 1.73073C17.7139 1.68803 17.6063 1.66538 17.4974 1.66406H12.4974C12.0372 1.66406 11.6641 2.03716 11.6641 2.4974C11.6641 2.95763 12.0372 3.33073 12.4974 3.33073H15.4891L6.90573 11.9057C6.74797 12.0622 6.65923 12.2752 6.65923 12.4974C6.65923 12.7196 6.74797 12.9326 6.90573 13.0891C7.0622 13.2468 7.2752 13.3356 7.4974 13.3356C7.71959 13.3356 7.93259 13.2468 8.08906 13.0891L16.6641 4.50573V7.4974C16.6641 7.95763 17.0372 8.33073 17.4974 8.33073C17.9576 8.33073 18.3307 7.95763 18.3307 7.4974V2.4974C18.3294 2.3885 18.3068 2.28091 18.2641 2.18073Z" fill="#4128D1"/>
</svg>
