<svg width="100%" height="100%" viewBox="0 0 130 22" fill="none" xmlns="http://www.w3.org/2000/svg">
<path d="M28.018 16C25.806 16 24 14.236 24 12.08V10.12C24 7.95 25.806 6.2 28.018 6.2H35.956V8.16H28.018C26.996 8.16 26.156 9.042 26.156 10.12V12.08C26.156 13.158 26.996 14.04 28.018 14.04H35.956V16H28.018ZM41.7446 16C39.5326 16 37.7266 14.236 37.7266 12.08V10.12C37.7266 7.95 39.5326 6.2 41.7446 6.2H46.6446C48.8706 6.2 50.6626 7.95 50.6626 10.12V12.08C50.6626 14.236 48.8706 16 46.6446 16H41.7446ZM41.7446 8.16C40.7226 8.16 39.8826 9.042 39.8826 10.12V12.08C39.8826 13.158 40.7226 14.04 41.7446 14.04H46.6446C47.6806 14.04 48.5066 13.158 48.5066 12.08V10.12C48.5066 9.042 47.6806 8.16 46.6446 8.16H41.7446ZM62.3218 16C60.1098 16 58.3038 14.236 58.3038 12.08V10.12C58.3038 9.042 57.4638 8.16 56.4418 8.16H55.4618C54.9718 8.16 54.5798 8.594 54.5798 9.14V16H52.4238V9.14C52.4238 7.516 53.7818 6.2 55.4618 6.2H56.4418C58.6538 6.2 60.4598 7.95 60.4598 10.12V12.08C60.4598 13.158 61.2998 14.04 62.3218 14.04C62.8118 14.04 63.2038 13.592 63.2038 13.06V6.2H65.3598V13.06C65.3598 14.684 64.0018 16 62.3218 16ZM73.0991 16C70.8871 16 69.0811 14.236 69.0811 12.08V9.14C69.0811 8.594 68.6891 8.16 68.1991 8.16H67.1211V6.2H68.1991C69.8651 6.2 71.2371 7.516 71.2371 9.14V12.08C71.2371 13.158 72.0631 14.04 73.0991 14.04H74.0791C75.1011 14.04 75.9411 13.158 75.9411 12.08V9.14C75.9411 7.516 77.2991 6.2 78.9791 6.2H80.0571V8.16H78.9791C78.4891 8.16 78.0971 8.594 78.0971 9.14V12.08C78.0971 14.236 76.2911 16 74.0791 16H73.0991ZM83.9744 12.08V13.06C83.9744 13.592 84.3664 14.04 84.8564 14.04H93.7744V16H84.8564C83.1764 16 81.8184 14.684 81.8184 13.06V9.14C81.8184 7.516 83.1764 6.2 84.8564 6.2H93.7744V8.16H84.8564C84.3664 8.16 83.9744 8.594 83.9744 9.14V10.12H92.7944V12.08H83.9744ZM105.443 12.08H104.561C104.561 13.158 105.401 14.04 106.423 14.04H108.481V16H106.423C104.211 16 102.405 14.236 102.405 12.08H97.7009V16H95.5449V9.14C95.5449 7.516 96.9029 6.2 98.5829 6.2H105.443C107.123 6.2 108.481 7.516 108.481 9.14C108.481 10.764 107.123 12.08 105.443 12.08ZM97.7009 9.14V10.12H105.443C105.933 10.12 106.325 9.672 106.325 9.14C106.325 8.594 105.933 8.16 105.443 8.16H98.5829C98.0929 8.16 97.7009 8.594 97.7009 9.14ZM110.242 6.2H122.198V8.16H117.298V16H115.142V8.16H110.242V6.2Z" fill="#23282D"/>
<path d="M128.384 12.766L129.027 12L129.793 12.6428L129.15 13.4088L128.384 12.766Z" fill="#25BEFF"/>
<path d="M25 20.5229H123.253L128 14.2729" stroke="#25BEFF"/>
<path d="M1.77778 7.22222L4 5H8H16V13V17L14.2222 18.7778L12 21H8H0V13V9L1.77778 7.22222Z" fill="#25BEFF"/>
<path d="M4.25 10.5C4.25 10.5 6.125 7.62496 9.375 8.74997C12.625 9.87498 12.5 13.125 12.5 13.125" stroke="white"/>
<path d="M11.75 15.5C11.75 15.5 10.25 18.25 6.875 17.375C3.5 16.5 3.5 13 3.5 13" stroke="white"/>
<path d="M12.5 9V13" stroke="white"/>
<path d="M3.5 13V17" stroke="white"/>
<path d="M7 11V13H8.75C9.30228 13 9.75 12.5523 9.75 12C9.75 11.4477 9.30228 11 8.75 11H8.25M7 11H6M7 11V10M7 11H8.25M8.25 11V10" stroke="white"/>
<path d="M7 15V13H9.25C9.80228 13 10.25 13.4477 10.25 14C10.25 14.5523 9.80228 15 9.25 15H8.25M7 15V16M7 15H6H8.25M7 15H8.25M8.25 15V16" stroke="white"/>
</svg>
