<svg width="196" height="161" viewBox="0 0 196 161" fill="none" xmlns="http://www.w3.org/2000/svg">
<path d="M97.4315 160.953C137.035 160.953 169.14 154.954 169.14 147.554C169.14 140.154 137.035 134.155 97.4315 134.155C57.8281 134.155 25.7231 140.154 25.7231 147.554C25.7231 154.954 57.8281 160.953 97.4315 160.953Z" fill="#F5F5F7" fill-opacity="0.8"/>
<path fill-rule="evenodd" clip-rule="evenodd" d="M154.797 108.19L129.492 77.0467C128.278 75.5808 126.503 74.6934 124.634 74.6934H70.2261C68.3582 74.6934 66.5834 75.5808 65.3692 77.0467L40.0649 108.19V124.461H154.798V108.19H154.797Z" fill="#B1B5C4"/>
<path fill-rule="evenodd" clip-rule="evenodd" d="M61.5047 34.4971H133.357C134.479 34.4971 135.555 34.9428 136.349 35.7362C137.142 36.5297 137.588 37.6058 137.588 38.7278V137.457C137.588 138.579 137.142 139.655 136.349 140.449C135.555 141.242 134.479 141.688 133.357 141.688H61.5047C60.3826 141.688 59.3065 141.242 58.5131 140.449C57.7197 139.655 57.2739 138.579 57.2739 137.457V38.7278C57.2739 37.6058 57.7197 36.5297 58.5131 35.7362C59.3065 34.9428 60.3826 34.4971 61.5047 34.4971V34.4971Z" fill="#F5F5F7"/>
<path fill-rule="evenodd" clip-rule="evenodd" d="M70.8634 45.0239H123.999C124.56 45.0239 125.098 45.2468 125.494 45.6435C125.891 46.0402 126.114 46.5783 126.114 47.1393V73.5361C126.114 74.0972 125.891 74.6352 125.494 75.0319C125.098 75.4287 124.56 75.6515 123.999 75.6515H70.8634C70.3024 75.6515 69.7643 75.4287 69.3676 75.0319C68.9709 74.6352 68.748 74.0972 68.748 73.5361V47.1393C68.748 46.5783 68.9709 46.0402 69.3676 45.6435C69.7643 45.2468 70.3024 45.0239 70.8634 45.0239V45.0239ZM71.1405 87.1349H123.722C124.356 87.1349 124.965 87.387 125.413 87.8356C125.862 88.2843 126.114 88.8929 126.114 89.5274C126.114 90.1619 125.862 90.7705 125.413 91.2191C124.965 91.6678 124.356 91.9199 123.722 91.9199H71.1405C70.506 91.9199 69.8974 91.6678 69.4488 91.2191C69.0001 90.7705 68.748 90.1619 68.748 89.5274C68.748 88.8929 69.0001 88.2843 69.4488 87.8356C69.8974 87.387 70.506 87.1349 71.1405 87.1349V87.1349ZM71.1405 99.5765H123.722C124.356 99.5765 124.965 99.8286 125.414 100.277C125.862 100.726 126.115 101.335 126.115 101.97C126.115 102.604 125.862 103.213 125.414 103.662C124.965 104.11 124.356 104.363 123.722 104.363H71.1405C70.5058 104.363 69.8972 104.11 69.4484 103.662C68.9996 103.213 68.7475 102.604 68.7475 101.97C68.7475 101.335 68.9996 100.726 69.4484 100.277C69.8972 99.8286 70.5058 99.5765 71.1405 99.5765V99.5765ZM154.564 145.588C153.744 148.836 150.865 151.257 147.44 151.257H47.4218C43.997 151.257 41.1179 148.835 40.2993 145.588C40.1431 144.969 40.0643 144.333 40.0645 143.695V108.191H67.9008C70.9755 108.191 73.4537 110.781 73.4537 113.924V113.966C73.4537 117.109 75.9604 119.646 79.0351 119.646H115.827C118.902 119.646 121.408 117.086 121.408 113.942V113.929C121.408 110.786 123.887 108.19 126.961 108.19H154.798V143.696C154.798 144.349 154.716 144.982 154.564 145.588V145.588Z" fill="#D6DAE0"/>
<path fill-rule="evenodd" clip-rule="evenodd" d="M158.063 36.2127L150.839 39.0156C150.653 39.0877 150.451 39.1061 150.255 39.0684C150.06 39.0308 149.879 38.9387 149.733 38.8028C149.588 38.6669 149.484 38.4927 149.433 38.3002C149.382 38.1076 149.386 37.9047 149.446 37.7146L151.494 31.1495C148.756 28.0357 147.148 24.2386 147.148 20.1411C147.148 9.56942 157.85 1 171.052 1C184.251 1 194.954 9.56942 194.954 20.1411C194.954 30.7127 184.252 39.2821 171.051 39.2821C166.262 39.2821 161.803 38.1546 158.063 36.2127Z" fill="#D6DAE0"/>
<path d="M180.468 23.5979C182.132 23.5979 183.481 22.2648 183.481 20.6205C183.481 18.9761 182.132 17.6431 180.468 17.6431C178.804 17.6431 177.455 18.9761 177.455 20.6205C177.455 22.2648 178.804 23.5979 180.468 23.5979Z" fill="white"/>
<path fill-rule="evenodd" clip-rule="evenodd" d="M164.649 23.2253H158.622L161.687 18.0151L164.649 23.2253ZM168.415 18.0151H173.688V23.2253H168.415V18.0151Z" fill="white"/>
</svg>
