<svg width="177" height="89" viewBox="0 0 177 89" fill="none" xmlns="http://www.w3.org/2000/svg">
<g clip-path="url(#clip0_30405_75017)">
<path d="M173.262 88.0022C174.967 88.0022 176.354 86.6195 176.294 84.9157C175.747 69.3517 171.069 54.2096 162.739 41.0391C161.829 39.6014 159.909 39.2407 158.502 40.1968C157.091 41.1558 156.731 43.0752 157.639 44.5198C165.272 56.662 169.575 70.5933 170.116 84.9159C170.181 86.6196 171.557 88.0022 173.262 88.0022Z" fill="#16C784"/>
<path d="M156.901 37.9475C158.28 36.9433 158.586 35.0063 157.531 33.6654C147.859 21.3712 135.078 11.8679 120.505 6.13518C118.923 5.51295 117.162 6.35619 116.593 7.95784C116.023 9.56273 116.865 11.3203 118.448 11.9481C131.852 17.263 143.615 26.0117 152.549 37.3095C153.604 38.6438 155.526 38.9487 156.901 37.9475Z" fill="#93D900"/>
<path d="M113.032 6.79368C113.531 5.1655 112.615 3.4359 110.97 2.99624C95.9334 -1.02229 80.0964 -0.998202 65.0719 3.06605C63.4281 3.51072 62.5177 5.24312 63.0215 6.86979C63.5244 8.49352 65.2462 9.3971 66.8882 8.95738C80.7343 5.24947 95.3145 5.22729 109.172 8.89306C110.815 9.32777 112.534 8.41894 113.032 6.79368Z" fill="#F3D42F"/>
<path d="M60.1452 7.80142C59.5849 6.19668 57.8283 5.34386 56.2432 5.95749C41.7311 11.5754 28.9664 20.9266 19.2486 33.0588C18.182 34.3904 18.4713 36.33 19.8417 37.3463C21.208 38.3594 23.132 38.0713 24.1986 36.7464C33.1735 25.5984 44.921 16.9902 58.2678 11.7815C59.8544 11.1623 60.7067 9.40936 60.1452 7.80142Z" fill="#EA8C00"/>
<path d="M17.7123 40.3188C16.3036 39.3652 14.3838 39.7292 13.4769 41.1685C5.19324 54.3157 0.543803 69.4179 0.00184412 84.9377C-0.0576556 86.6415 1.33044 88.0239 3.03535 88.0235C4.74025 88.023 6.11591 86.6401 6.17992 84.9364C6.71646 70.6549 10.9928 56.7608 18.5824 44.6403C19.4879 43.1942 19.1252 41.2753 17.7123 40.3188Z" fill="#EA3943"/>
<rect x="88" y="12" width="1" height="35" fill="#BFC6CD" fill-opacity="0.15"/>
<rect x="102.641" y="13.3438" width="1" height="35" transform="rotate(11.25 102.641 13.3438)" fill="#BFC6CD" fill-opacity="0.15"/>
<rect x="116.742" y="17.5156" width="1" height="35" transform="rotate(22.5 116.742 17.5156)" fill="#BFC6CD" fill-opacity="0.15"/>
<rect x="129.75" y="24.3594" width="1" height="35" transform="rotate(33.75 129.75 24.3594)" fill="#BFC6CD" fill-opacity="0.15"/>
<rect x="141.18" y="33.6172" width="1" height="35" transform="rotate(45 141.18 33.6172)" fill="#BFC6CD" fill-opacity="0.15"/>
<rect x="150.586" y="44.9141" width="1" height="35" transform="rotate(56.25 150.586 44.9141)" fill="#BFC6CD" fill-opacity="0.15"/>
<rect x="157.602" y="57.8359" width="1" height="35" transform="rotate(67.5 157.602 57.8359)" fill="#BFC6CD" fill-opacity="0.15"/>
<rect x="161.961" y="71.875" width="1" height="35" transform="rotate(78.75 161.961 71.875)" fill="#BFC6CD" fill-opacity="0.15"/>
<rect x="163.5" y="86.5" width="1" height="35" transform="rotate(90 163.5 86.5)" fill="#BFC6CD" fill-opacity="0.15"/>
<rect x="13.5" y="87.5" width="1" height="35" transform="rotate(-90 13.5 87.5)" fill="#BFC6CD" fill-opacity="0.15"/>
<rect x="14.8438" y="72.8594" width="1" height="35" transform="rotate(-78.75 14.8438 72.8594)" fill="#BFC6CD" fill-opacity="0.15"/>
<rect x="19.0156" y="58.7578" width="1" height="35" transform="rotate(-67.5 19.0156 58.7578)" fill="#BFC6CD" fill-opacity="0.15"/>
<rect x="25.8594" y="45.75" width="1" height="35" transform="rotate(-56.25 25.8594 45.75)" fill="#BFC6CD" fill-opacity="0.15"/>
<rect x="35.1172" y="34.3203" width="1" height="35" transform="rotate(-45 35.1172 34.3203)" fill="#BFC6CD" fill-opacity="0.15"/>
<rect x="46.4141" y="24.9141" width="1" height="35" transform="rotate(-33.75 46.4141 24.9141)" fill="#BFC6CD" fill-opacity="0.15"/>
<rect x="59.3359" y="17.8984" width="1" height="35" transform="rotate(-22.5 59.3359 17.8984)" fill="#BFC6CD" fill-opacity="0.15"/>
<rect x="73.375" y="13.5391" width="1" height="35" transform="rotate(-11.25 73.375 13.5391)" fill="#BFC6CD" fill-opacity="0.15"/>
</g>
<defs>
<clipPath id="clip0_30405_75017">
<rect width="177" height="89" fill="white"/>
</clipPath>
</defs>
</svg>
