<svg width="100%" height="100%" viewBox="0 0 256 22" fill="none" xmlns="http://www.w3.org/2000/svg">
<path d="M35.956 8.16H27.038C26.548 8.16 26.156 8.594 26.156 9.14V11.1H34.976V13.06H26.156V16H24V9.14C24 7.516 25.358 6.2 27.038 6.2H35.956V8.16ZM39.8826 12.08V13.06C39.8826 13.592 40.2746 14.04 40.7646 14.04H49.6826V16H40.7646C39.0846 16 37.7266 14.684 37.7266 13.06V9.14C37.7266 7.516 39.0846 6.2 40.7646 6.2H49.6826V8.16H40.7646C40.2746 8.16 39.8826 8.594 39.8826 9.14V10.12H48.7026V12.08H39.8826ZM55.4711 6.2H59.3911C61.6031 6.2 63.4091 7.95 63.4091 10.12V16H61.2531V13.06H53.6091V16H51.4531V10.12C51.4531 7.95 53.2451 6.2 55.4711 6.2ZM53.6091 10.12V11.1H61.2531V10.12C61.2531 9.042 60.4131 8.16 59.3911 8.16H55.4711C54.4351 8.16 53.6091 9.042 53.6091 10.12ZM75.0777 12.08H74.1957C74.1957 13.158 75.0357 14.04 76.0577 14.04H78.1157V16H76.0577C73.8457 16 72.0397 14.236 72.0397 12.08H67.3357V16H65.1797V9.14C65.1797 7.516 66.5377 6.2 68.2177 6.2H75.0777C76.7577 6.2 78.1157 7.516 78.1157 9.14C78.1157 10.764 76.7577 12.08 75.0777 12.08ZM67.3357 9.14V10.12H75.0777C75.5677 10.12 75.9597 9.672 75.9597 9.14C75.9597 8.594 75.5677 8.16 75.0777 8.16H68.2177C67.7277 8.16 67.3357 8.594 67.3357 9.14ZM99.6669 12.08H98.5889C98.0989 12.08 97.7069 12.514 97.7069 13.06C97.7069 13.592 98.0989 14.04 98.5889 14.04H99.6669V16H98.5889C97.8469 16 97.1609 15.734 96.6289 15.3C96.0969 15.734 95.4109 16 94.6689 16H90.7489C89.0829 16 87.7109 14.684 87.7109 13.06C87.7109 12.024 88.2709 11.114 89.0969 10.596C88.8449 10.162 88.6909 9.672 88.6909 9.14C88.6909 7.516 90.0489 6.2 91.7289 6.2H93.6889C95.3689 6.2 96.7269 7.516 96.7269 9.14C96.7269 9.672 96.5869 10.162 96.3209 10.596C96.4329 10.666 96.5309 10.736 96.6289 10.82C97.1609 10.386 97.8469 10.12 98.5889 10.12H99.6669V12.08ZM93.6889 8.16H91.7289C91.2389 8.16 90.8469 8.594 90.8469 9.14C90.8469 9.672 91.2389 10.12 91.7289 10.12H93.6889C94.1789 10.12 94.5709 9.672 94.5709 9.14C94.5709 8.594 94.1789 8.16 93.6889 8.16ZM90.7489 14.04H94.6689C95.1589 14.04 95.5509 13.592 95.5509 13.06C95.5509 12.514 95.1589 12.08 94.6689 12.08H90.7489C90.2589 12.08 89.8669 12.514 89.8669 13.06C89.8669 13.592 90.2589 14.04 90.7489 14.04ZM113.289 16C111.077 16 109.271 14.236 109.271 12.08V10.12C109.271 7.95 111.077 6.2 113.289 6.2H121.227V8.16H113.289C112.267 8.16 111.427 9.042 111.427 10.12V12.08C111.427 13.158 112.267 14.04 113.289 14.04H119.169C119.659 14.04 120.051 13.592 120.051 13.06C120.051 12.514 119.659 12.08 119.169 12.08H113.191V10.12H119.169C120.849 10.12 122.207 11.436 122.207 13.06C122.207 14.684 120.849 16 119.169 16H113.289ZM133.867 12.08H132.985C132.985 13.158 133.825 14.04 134.847 14.04H136.905V16H134.847C132.635 16 130.829 14.236 130.829 12.08H126.125V16H123.969V9.14C123.969 7.516 125.327 6.2 127.007 6.2H133.867C135.547 6.2 136.905 7.516 136.905 9.14C136.905 10.764 135.547 12.08 133.867 12.08ZM126.125 9.14V10.12H133.867C134.357 10.12 134.749 9.672 134.749 9.14C134.749 8.594 134.357 8.16 133.867 8.16H127.007C126.517 8.16 126.125 8.594 126.125 9.14ZM140.822 12.08V13.06C140.822 13.592 141.214 14.04 141.704 14.04H150.622V16H141.704C140.024 16 138.666 14.684 138.666 13.06V9.14C138.666 7.516 140.024 6.2 141.704 6.2H150.622V8.16H141.704C141.214 8.16 140.822 8.594 140.822 9.14V10.12H149.642V12.08H140.822ZM154.549 12.08V13.06C154.549 13.592 154.941 14.04 155.431 14.04H164.349V16H155.431C153.751 16 152.393 14.684 152.393 13.06V9.14C152.393 7.516 153.751 6.2 155.431 6.2H164.349V8.16H155.431C154.941 8.16 154.549 8.594 154.549 9.14V10.12H163.369V12.08H154.549ZM169.157 16C167.477 16 166.119 14.684 166.119 13.06V9.14C166.119 7.516 167.477 6.2 169.157 6.2H175.037C177.249 6.2 179.055 7.95 179.055 10.12V12.08C179.055 14.236 177.249 16 175.037 16H169.157ZM169.157 8.16C168.667 8.16 168.275 8.594 168.275 9.14V13.06C168.275 13.592 168.667 14.04 169.157 14.04H175.037C176.059 14.04 176.899 13.158 176.899 12.08V10.12C176.899 9.042 176.059 8.16 175.037 8.16H169.157ZM188.65 16V6.2H190.806V16H188.65ZM202.472 16C200.26 16 198.454 14.236 198.454 12.08V10.12C198.454 9.042 197.614 8.16 196.592 8.16H195.612C195.122 8.16 194.73 8.594 194.73 9.14V16H192.574V9.14C192.574 7.516 193.932 6.2 195.612 6.2H196.592C198.804 6.2 200.61 7.95 200.61 10.12V12.08C200.61 13.158 201.45 14.04 202.472 14.04C202.962 14.04 203.354 13.592 203.354 13.06V6.2H205.51V13.06C205.51 14.684 204.152 16 202.472 16ZM210.309 16C208.629 16 207.271 14.684 207.271 13.06V9.14C207.271 7.516 208.629 6.2 210.309 6.2H216.189C218.401 6.2 220.207 7.95 220.207 10.12V12.08C220.207 14.236 218.401 16 216.189 16H210.309ZM210.309 8.16C209.819 8.16 209.427 8.594 209.427 9.14V13.06C209.427 13.592 209.819 14.04 210.309 14.04H216.189C217.211 14.04 218.051 13.158 218.051 12.08V10.12C218.051 9.042 217.211 8.16 216.189 8.16H210.309ZM224.125 12.08V13.06C224.125 13.592 224.517 14.04 225.007 14.04H233.925V16H225.007C223.327 16 221.969 14.684 221.969 13.06V9.14C221.969 7.516 223.327 6.2 225.007 6.2H233.925V8.16H225.007C224.517 8.16 224.125 8.594 224.125 9.14V10.12H232.945V12.08H224.125ZM247.651 6.2V8.16C247.651 9.322 247.119 10.372 246.279 11.1C247.119 11.814 247.651 12.864 247.651 14.04V16H245.495V14.04C245.495 12.962 244.669 12.08 243.633 12.08H239.713C238.691 12.08 237.851 12.962 237.851 14.04V16H235.695V14.04C235.695 12.864 236.227 11.814 237.067 11.1C236.227 10.372 235.695 9.322 235.695 8.16V6.2H237.851V8.16C237.851 9.238 238.691 10.12 239.713 10.12H243.633C244.669 10.12 245.495 9.238 245.495 8.16V6.2H247.651Z" fill="#23282D"/>
<path d="M254.5 12.7661L255.143 12L255.909 12.6428L255.266 13.4088L254.5 12.7661Z" fill="#25BEFF"/>
<path d="M25 20.5229H249.25L254 14.2729" stroke="#25BEFF"/>
<path d="M1.77778 7.22222L4 5H8H16V13V17L14.2222 18.7778L12 21H8H0V13V9L1.77778 7.22222Z" fill="#25BEFF"/>
<path d="M3.38867 12.7985C3.34245 12.7008 3.29949 12.6017 3.26027 12.5014C3.09816 12.0868 3 11.651 3 11.2C3 9.70882 4.22104 8.5 5.72727 8.5C6.6759 8.5 7.5114 8.97948 8 9.707C8.4886 8.97948 9.3241 8.5 10.2727 8.5C11.779 8.5 13 9.70882 13 11.2C13 13.1412 11.1818 14.8 10.2727 15.7C9.66668 16.3 8.9091 16.9 8 17.5C7.0909 16.9 6.33332 16.3 5.72727 15.7C5.63575 15.6094 5.53503 15.5111 5.42785 15.4056" stroke="white"/>
<path d="M4 14.4933L6.77845 11.7599L8.39453 13.4265L10.8155 10.9547" stroke="white"/>
</svg>
