<svg width="55" height="55" viewBox="0 0 55 55" fill="none" xmlns="http://www.w3.org/2000/svg">
<rect width="55" height="55" rx="16" fill="#D8F3F1"/>
<path d="M38.6941 24.2034C38.6941 28.9843 34.8223 32.86 30.0463 32.86C25.2702 32.86 21.3984 28.9843 21.3984 24.2034C21.3984 19.4225 25.2702 15.5469 30.0463 15.5469C34.8223 15.5469 38.6941 19.4225 38.6941 24.2034Z" stroke="#5CE1CD" stroke-width="2"/>
<ellipse cx="24.5384" cy="31.2894" rx="8.64782" ry="8.65655" fill="#D8F3F1" stroke="#5CE1CD" stroke-width="2"/>
<path d="M24.5676 36.7987C24.349 36.7987 24.1644 36.7216 24.0137 36.5675C23.8629 36.4133 23.7876 36.2206 23.7876 35.9894V35.1339L24.1267 35.4461C23.6217 35.4229 23.1846 35.3574 22.8153 35.2495C22.446 35.1416 22.1446 35.0337 21.9109 34.9258C21.715 34.8333 21.5755 34.7023 21.4926 34.5328C21.4173 34.3632 21.3871 34.1898 21.4022 34.0125C21.4248 33.8353 21.4889 33.6734 21.5944 33.527C21.6999 33.3805 21.8356 33.2842 22.0014 33.238C22.1747 33.184 22.3744 33.2071 22.6005 33.3073C22.7513 33.3921 22.9774 33.4807 23.2788 33.5732C23.5878 33.658 23.9684 33.7004 24.4206 33.7004C24.7372 33.7004 24.9859 33.6696 25.1668 33.6079C25.3552 33.5462 25.4871 33.4653 25.5624 33.3651C25.6453 33.2572 25.6868 33.1416 25.6868 33.0183C25.6868 32.9027 25.6566 32.8064 25.5963 32.7293C25.5436 32.6445 25.4532 32.5713 25.325 32.5096C25.1969 32.4403 25.0198 32.3786 24.7937 32.3247L23.5162 32.0472C22.8153 31.8853 22.2915 31.6156 21.9448 31.2379C21.6057 30.8526 21.4361 30.3555 21.4361 29.7466C21.4361 29.2842 21.5454 28.8718 21.764 28.5096C21.9901 28.1397 22.3028 27.8391 22.7023 27.6079C23.1093 27.3766 23.5841 27.2302 24.1267 27.1685L23.7876 27.3651V26.5905C23.7876 26.3593 23.8629 26.1666 24.0137 26.0125C24.1644 25.8583 24.349 25.7812 24.5676 25.7812C24.7937 25.7812 24.9821 25.8583 25.1328 26.0125C25.2836 26.1666 25.3589 26.3593 25.3589 26.5905V27.3651L25.0198 27.1454C25.3062 27.1531 25.6152 27.2032 25.9468 27.2957C26.2784 27.3805 26.5686 27.5 26.8173 27.6541C26.9906 27.7466 27.1112 27.8738 27.179 28.0356C27.2544 28.1975 27.2808 28.3632 27.2582 28.5327C27.2431 28.6946 27.1828 28.841 27.0773 28.972C26.9793 29.103 26.8437 29.1917 26.6703 29.2379C26.5045 29.2765 26.3048 29.2456 26.0712 29.1454C25.8978 29.0684 25.7019 29.0067 25.4833 28.9605C25.2723 28.9065 25.001 28.8795 24.6693 28.8795C24.2699 28.8795 23.9609 28.9528 23.7423 29.0992C23.5313 29.2456 23.4258 29.4345 23.4258 29.6657C23.4258 29.8198 23.4861 29.9508 23.6067 30.0587C23.7348 30.1589 23.9647 30.2476 24.2963 30.3246L25.585 30.6137C26.301 30.7755 26.8286 31.0453 27.1677 31.4229C27.5144 31.7929 27.6878 32.2746 27.6878 32.868C27.6878 33.3304 27.5785 33.7389 27.3599 34.0935C27.1414 34.448 26.8361 34.737 26.4442 34.9605C26.0598 35.184 25.6114 35.3305 25.0989 35.3998L25.3589 35.1224V35.9894C25.3589 36.2206 25.2836 36.4133 25.1328 36.5675C24.9896 36.7216 24.8012 36.7987 24.5676 36.7987Z" fill="#5CE1CD"/>
<path d="M18.5661 14.684C18.9565 14.2933 18.9565 13.6598 18.5661 13.2691C18.1758 12.8784 17.543 12.8784 17.1526 13.2691L18.5661 14.684ZM9.78439 21.0592C9.78439 21.6118 10.2319 22.0597 10.7839 22.0597L19.7793 22.0597C20.3313 22.0597 20.7788 21.6118 20.7788 21.0592C20.7788 20.5066 20.3313 20.0587 19.7793 20.0587L11.7834 20.0587L11.7834 12.0547C11.7834 11.5021 11.3359 11.0542 10.7839 11.0542C10.2319 11.0542 9.78439 11.5021 9.78439 12.0547L9.78439 21.0592ZM17.1526 13.2691L10.0771 20.3517L11.4906 21.7667L18.5661 14.684L17.1526 13.2691Z" fill="#5CE1CD"/>
<path d="M36.4183 40.4175C36.0279 40.8083 36.0279 41.4417 36.4183 41.8325C36.8086 42.2232 37.4414 42.2232 37.8317 41.8325L36.4183 40.4175ZM45.2 34.0424C45.2 33.4898 44.7525 33.0419 44.2005 33.0419L35.205 33.0419C34.653 33.0419 34.2055 33.4898 34.2055 34.0424C34.2055 34.5949 34.653 35.0429 35.205 35.0429L43.201 35.0429L43.201 43.0469C43.201 43.5995 43.6485 44.0474 44.2005 44.0474C44.7525 44.0474 45.2 43.5995 45.2 43.0469L45.2 34.0424ZM37.8317 41.8325L44.9072 34.7498L43.4937 33.3349L36.4183 40.4175L37.8317 41.8325Z" fill="#5CE1CD"/>
</svg>
