<svg width="40" height="40" viewBox="0 0 40 40" fill="none" xmlns="http://www.w3.org/2000/svg">
<path d="M5.55556 35.5556L-4.37114e-07 30L-8.74228e-07 20L-1.74846e-06 0L20 -8.74228e-07L30 -1.31134e-06L34.4444 4.44444L40 10L40 20L40 40L20 40L10 40L5.55556 35.5556Z" fill="#25BEFF"/>
<path d="M19.9999 22.9167C23.8659 22.9167 26.9999 19.7827 26.9999 15.9167C26.9999 12.0507 23.8659 8.91669 19.9999 8.91669C16.1339 8.91669 12.9999 12.0507 12.9999 15.9167C12.9999 19.7827 16.1339 22.9167 19.9999 22.9167Z" stroke="white" stroke-width="2.33333"/>
<path d="M15.3333 31.0833C19.1993 31.0833 22.3333 27.9493 22.3333 24.0833C22.3333 20.2173 19.1993 17.0833 15.3333 17.0833C11.4673 17.0833 8.33331 20.2173 8.33331 24.0833C8.33331 27.9493 11.4673 31.0833 15.3333 31.0833Z" stroke="white" stroke-width="2.33333"/>
<path d="M24.6667 31.0836C28.5327 31.0836 31.6667 27.9496 31.6667 24.0836C31.6667 20.2176 28.5327 17.0836 24.6667 17.0836C20.8007 17.0836 17.6667 20.2176 17.6667 24.0836C17.6667 27.9496 20.8007 31.0836 24.6667 31.0836Z" stroke="white" stroke-width="2.33333"/>
</svg>
