<svg width="55" height="55" viewBox="0 0 55 55" fill="none" xmlns="http://www.w3.org/2000/svg">
<rect width="55" height="55" rx="16" fill="#D8F3F1"/>
<path d="M26.5517 15.6489C24.0688 15.6769 21.6499 16.4406 19.601 17.8433C17.5521 19.2461 15.9652 21.2249 15.0409 23.5296C14.1166 25.8342 13.8965 28.3612 14.4084 30.791C14.9203 33.2207 16.1412 35.4441 17.9167 37.18C19.6922 38.9158 21.9426 40.0862 24.3833 40.5431C26.824 41 29.3453 40.7229 31.6285 39.7469C33.9117 38.7708 35.8542 37.1396 37.2104 35.0595C38.5665 32.9795 39.2754 30.544 39.2473 28.0611L26.6934 28.2028L26.5517 15.6489Z" stroke="#5CE1CD" stroke-width="2"/>
<path d="M29.4189 13.1411C31.0675 13.1225 32.7036 13.4288 34.2338 14.0424C35.7641 14.6561 37.1584 15.5652 38.3373 16.7178C39.5162 17.8704 40.4566 19.2439 41.1047 20.7599C41.7528 22.2759 42.0959 23.9046 42.1145 25.5533L29.5606 25.695L29.4189 13.1411Z" stroke="#5CE1CD" stroke-width="2"/>
</svg>
