<svg width="40" height="40" viewBox="0 0 40 40" fill="none" xmlns="http://www.w3.org/2000/svg">
<path d="M5.55556 35.5556L-4.37114e-07 30L-8.74228e-07 20L-1.74846e-06 0L20 -8.74228e-07L30 -1.31134e-06L34.4444 4.44444L40 10L40 20L40 40L20 40L10 40L5.55556 35.5556Z" fill="#25BEFF"/>
<path fill-rule="evenodd" clip-rule="evenodd" d="M20.8249 9.25837L19.9999 8.43341L19.175 9.25837L14.85 13.5833H9.49991C8.21125 13.5833 7.16658 14.628 7.16658 15.9167V28.75C7.16658 30.0387 8.21125 31.0833 9.49991 31.0833H30.4999C31.7886 31.0833 32.8332 30.0387 32.8332 28.75V15.9167C32.8332 14.628 31.7886 13.5833 30.4999 13.5833H25.1498L20.8249 9.25837ZM19.9999 11.7332L21.85 13.5833H18.1498L19.9999 11.7332ZM9.49991 15.9167H30.4999V28.75H9.49991V15.9167ZM23.5 21.1667H13V18.8333H23.5V21.1667ZM13 25.8334H17.6667V23.5H13V25.8334Z" fill="white"/>
</svg>
