<svg width="55" height="55" viewBox="0 0 55 55" fill="none" xmlns="http://www.w3.org/2000/svg">
<g id="Group 427321472">
<rect id="Rectangle 33" width="55" height="55" rx="16" fill="#D0EDFB"/>
<g id="Group 427321463">
<rect id="Rectangle 648" x="13" y="16" width="24.4242" height="16.8442" rx="2.52664" stroke="#2DC0FF" stroke-width="2"/>
<rect id="Rectangle 648_2" x="19.7344" y="23.1562" width="24.4242" height="16.8442" rx="2.52664" fill="#D0EDFB" stroke="#2DC0FF" stroke-width="2"/>
<path id="$" d="M31.788 37.8564C31.5381 37.8564 31.327 37.7683 31.1546 37.592C30.9822 37.4157 30.896 37.1954 30.896 36.931V35.9527L31.2839 36.3097C30.7064 36.2832 30.2066 36.2083 29.7843 36.0849C29.362 35.9615 29.0173 35.8381 28.7501 35.7148C28.526 35.609 28.3666 35.4592 28.2718 35.2653C28.1856 35.0714 28.1511 34.8731 28.1684 34.6704C28.1942 34.4677 28.2675 34.2826 28.3881 34.1152C28.5088 33.9477 28.6639 33.8375 28.8535 33.7847C29.0517 33.723 29.2801 33.7494 29.5387 33.864C29.711 33.9609 29.9696 34.0623 30.3143 34.168C30.6677 34.265 31.1029 34.3135 31.62 34.3135C31.9819 34.3135 32.2663 34.2782 32.4732 34.2077C32.6886 34.1372 32.8395 34.0446 32.9256 33.9301C33.0204 33.8067 33.0678 33.6745 33.0678 33.5335C33.0678 33.4013 33.0334 33.2911 32.9644 33.203C32.9041 33.106 32.8007 33.0223 32.6542 32.9518C32.5077 32.8725 32.3051 32.802 32.0466 32.7403L30.5858 32.423C29.7843 32.2379 29.1853 31.9295 28.7889 31.4976C28.4011 31.0569 28.2072 30.4885 28.2072 29.7922C28.2072 29.2634 28.3321 28.7919 28.582 28.3777C28.8406 27.9547 29.1983 27.611 29.655 27.3466C30.1204 27.0822 30.6634 26.9147 31.2839 26.8442L30.896 27.0689V26.1832C30.896 25.9188 30.9822 25.6985 31.1546 25.5222C31.327 25.3459 31.5381 25.2578 31.788 25.2578C32.0466 25.2578 32.262 25.3459 32.4344 25.5222C32.6068 25.6985 32.693 25.9188 32.693 26.1832V27.0689L32.3051 26.8178C32.6326 26.8266 32.986 26.8839 33.3652 26.9896C33.7444 27.0866 34.0762 27.2232 34.3606 27.3994C34.5588 27.5052 34.6967 27.6506 34.7743 27.8357C34.8604 28.0208 34.8906 28.2103 34.8647 28.4042C34.8475 28.5892 34.7786 28.7567 34.6579 28.9065C34.5459 29.0563 34.3907 29.1577 34.1925 29.2106C34.0029 29.2546 33.7745 29.2194 33.5074 29.1048C33.3092 29.0167 33.0851 28.9462 32.8352 28.8933C32.5938 28.8316 32.2836 28.8007 31.9044 28.8007C31.4476 28.8007 31.0943 28.8845 30.8443 29.0519C30.603 29.2194 30.4824 29.4353 30.4824 29.6997C30.4824 29.876 30.5513 30.0258 30.6892 30.1492C30.8357 30.2638 31.0986 30.3651 31.4778 30.4532L32.9515 30.7837C33.7702 30.9688 34.3735 31.2773 34.7613 31.7091C35.1578 32.1322 35.356 32.683 35.356 33.3616C35.356 33.8904 35.231 34.3575 34.9811 34.7629C34.7312 35.1683 34.3821 35.4988 33.934 35.7544C33.4944 36.01 32.9817 36.1775 32.3956 36.2568L32.693 35.9395V36.931C32.693 37.1954 32.6068 37.4157 32.4344 37.592C32.2707 37.7683 32.0552 37.8564 31.788 37.8564Z" fill="#2DC0FF"/>
</g>
</g>
</svg>
