<svg width="40" height="40" viewBox="0 0 40 40" fill="none" xmlns="http://www.w3.org/2000/svg">
<path d="M5.55556 35.5556L-4.37114e-07 30L-8.74228e-07 20L-1.74846e-06 0L20 -8.74228e-07L30 -1.31134e-06L34.4444 4.44444L40 10L40 20L40 40L20 40L10 40L5.55556 35.5556Z" fill="#25BEFF"/>
<path d="M14.1667 15.3333H9.5V24.6666H14.1667V15.3333Z" stroke="white" stroke-width="2.33333"/>
<path d="M11.8333 9.5V15.3333" stroke="white" stroke-width="2.33333"/>
<path d="M11.8333 24.6667V30.5" stroke="white" stroke-width="2.33333"/>
<path d="M30.5 15.3333H25.8333V24.6666H30.5V15.3333Z" stroke="white" stroke-width="2.33333"/>
<path d="M28.1667 9.5V15.3333" stroke="white" stroke-width="2.33333"/>
<path d="M28.1667 24.6667V30.5" stroke="white" stroke-width="2.33333"/>
<path d="M22.3333 14.1667H17.6667V23.5H22.3333V14.1667Z" stroke="white" stroke-width="2.33333"/>
<path d="M20 8.33331V14.1666" stroke="white" stroke-width="2.33333"/>
<path d="M20 23.5V29.3333" stroke="white" stroke-width="2.33333"/>
</svg>
