<svg width="20" height="20" viewBox="0 0 20 20" fill="none" xmlns="http://www.w3.org/2000/svg">
<g id="Group 427321082">
<path id="Union" fill-rule="evenodd" clip-rule="evenodd" d="M10.0116 1.4372C9.81172 1.32302 9.5664 1.32302 9.36657 1.4372L2.80407 5.1872C2.75934 5.21277 2.71839 5.24319 2.68173 5.2776C2.59588 5.35817 2.53358 5.46058 2.50141 5.5735C2.48477 5.63173 2.47664 5.69119 2.47656 5.75023V5.75156V5.75186V9.50186V13.2516C2.47656 13.4848 2.60155 13.7002 2.80407 13.8159L6.08545 15.691L6.08532 15.6912L9.36657 17.5662C9.5664 17.6804 9.81172 17.6804 10.0116 17.5662L12 16.43V14.9324L10.3391 15.8815V9.87895L15.6016 6.8718V9.50186V11H16.9016V9.50186V5.76808C16.9046 5.65326 16.8772 5.53619 16.816 5.42918C16.7548 5.32198 16.6676 5.23884 16.5669 5.18314L10.0116 1.4372ZM12.6479 4.44099L9.68906 2.7502L6.73018 4.44099L6.7303 4.44122L4.4369 5.75173L9.68917 8.75304L14.9413 5.7518L12.6478 4.44122L12.6479 4.44099ZM3.77656 6.87168V9.50186V12.8744L9.03906 15.8815V9.87882L3.77656 6.87168ZM13.999 15.0126H15.006V14.0616C15.006 13.7259 15.0939 13.4662 15.2697 13.2824C15.4456 13.0985 15.6773 13.0066 15.965 13.0066C16.2847 13.0066 16.5378 13.0985 16.7243 13.2824C16.9108 13.4662 17.004 13.7259 17.004 14.0616V15.0126H17.971V13.8378C17.971 13.5821 17.9164 13.3436 17.8072 13.1225C17.698 12.9014 17.5514 12.7069 17.3676 12.5391C17.1838 12.3713 16.9734 12.2394 16.7363 12.1435C16.4992 12.0476 16.2527 11.9996 15.997 11.9996C15.7093 11.9996 15.4442 12.0476 15.2018 12.1435C14.9594 12.2394 14.7489 12.3713 14.5704 12.5391C14.3919 12.7069 14.2521 12.9014 14.1508 13.1225C14.0496 13.3436 13.999 13.5821 13.999 13.8378V15.0126ZM18.8222 15.648C18.7183 15.5441 18.5944 15.4921 18.4506 15.4921H17.971H17.004H15.006H13.999H13.5195C13.3756 15.4921 13.2531 15.5441 13.1518 15.648C13.0506 15.7519 13 15.8758 13 16.0196V18.5531C13 18.6863 13.0226 18.8115 13.0679 18.9287C13.1132 19.0459 13.1772 19.1485 13.2597 19.2364C13.3423 19.3243 13.4422 19.3949 13.5594 19.4482C13.6767 19.5015 13.8072 19.5281 13.951 19.5281H17.987C18.1309 19.5281 18.2627 19.5015 18.3826 19.4482C18.5025 19.3949 18.6064 19.3216 18.6943 19.2284C18.7822 19.1352 18.8515 19.0259 18.9021 18.9007C18.9527 18.7755 18.978 18.641 18.978 18.4971V16.0196C18.978 15.8758 18.9261 15.7519 18.8222 15.648Z" fill="#7E7E7E"/>
</g>
</svg>
