<svg width="20" height="20" viewBox="0 0 20 20" fill="none" xmlns="http://www.w3.org/2000/svg">
<g id="Group 427321083">
<path id="Union" fill-rule="evenodd" clip-rule="evenodd" d="M6.08461 4.3V15.7H3.3V4.3H6.08461ZM6.30769 3C6.90246 3 7.38461 3.48215 7.38461 4.07692V15.9231C7.38461 16.5178 6.90246 17 6.30769 17H3.07692C2.48215 17 2 16.5178 2 15.9231V4.07692C2 3.48215 2.48215 3 3.07692 3H6.30769ZM15.7799 5.22454V11H17.0799V5.02761C17.0799 4.48449 16.6755 4.02637 16.1366 3.959L9.67504 3.15131C9.03228 3.07097 8.46454 3.57215 8.46454 4.21992V15.7801C8.46454 16.4278 9.03228 16.929 9.67504 16.8487L12.0018 16.5578V15.2477L9.76454 15.5274V4.47262L15.7799 5.22454ZM13.8456 8.81094C14.2045 8.81094 14.4956 9.10195 14.4956 9.46094C14.4956 9.81992 14.2045 10.1109 13.8456 10.1109H11.6917C11.3327 10.1109 11.0417 9.81992 11.0417 9.46094C11.0417 9.10195 11.3327 8.81094 11.6917 8.81094H13.8456ZM13.999 15.013H15.006V14.0619C15.006 13.7263 15.0939 13.4665 15.2697 13.2827C15.4456 13.0989 15.6773 13.007 15.965 13.007C16.2847 13.007 16.5378 13.0989 16.7243 13.2827C16.9108 13.4665 17.004 13.7263 17.004 14.0619V15.013H17.971V13.8382C17.971 13.5824 17.9164 13.344 17.8072 13.1229C17.698 12.9018 17.5514 12.7073 17.3676 12.5395C17.1838 12.3716 16.9734 12.2398 16.7363 12.1439C16.4992 12.048 16.2527 12 15.997 12C15.7093 12 15.4442 12.048 15.2018 12.1439C14.9594 12.2398 14.7489 12.3716 14.5704 12.5395C14.3919 12.7073 14.2521 12.9018 14.1508 13.1229C14.0496 13.344 13.999 13.5824 13.999 13.8382V15.013ZM18.8222 15.6484C18.7183 15.5445 18.5944 15.4925 18.4506 15.4925H17.971H17.004H15.006H13.999H13.5195C13.3756 15.4925 13.2531 15.5445 13.1518 15.6484C13.0506 15.7522 13 15.8761 13 16.02V18.5534C13 18.6866 13.0226 18.8119 13.0679 18.9291C13.1132 19.0463 13.1772 19.1489 13.2597 19.2368C13.3423 19.3247 13.4422 19.3953 13.5594 19.4486C13.6767 19.5018 13.8072 19.5285 13.951 19.5285H17.987C18.1309 19.5285 18.2627 19.5018 18.3826 19.4486C18.5025 19.3953 18.6064 19.322 18.6943 19.2288C18.7822 19.1355 18.8515 19.0263 18.9021 18.9011C18.9527 18.7759 18.978 18.6414 18.978 18.4975V16.02C18.978 15.8761 18.9261 15.7522 18.8222 15.6484Z" fill="#7E7E7E"/>
</g>
</svg>
