<svg width="20" height="20" viewBox="0 0 20 20" fill="none" xmlns="http://www.w3.org/2000/svg">
<g id="Group 427321085">
<g id="Group 427321078">
<path id="Union" fill-rule="evenodd" clip-rule="evenodd" d="M6.08281 4.3V15.7H3.2982V4.3H6.08281ZM6.30589 3C6.90066 3 7.38281 3.48215 7.38281 4.07692V15.9231C7.38281 16.5178 6.90066 17 6.30589 17H3.07512C2.48035 17 1.9982 16.5178 1.9982 15.9231V4.07692C1.9982 3.48215 2.48035 3 3.07512 3H6.30589ZM15.7781 5.22454V14.7755L9.76274 15.5274V4.47262L15.7781 5.22454ZM16.1348 3.959C16.6737 4.02637 17.0781 4.48449 17.0781 5.02761V14.9724C17.0781 15.5155 16.6737 15.9736 16.1348 16.041L9.67324 16.8487C9.03047 16.929 8.46274 16.4278 8.46274 15.7801V4.21992C8.46274 3.57215 9.03047 3.07097 9.67324 3.15131L16.1348 3.959ZM13.8438 8.81094C14.2027 8.81094 14.4938 9.10195 14.4938 9.46094C14.4938 9.81992 14.2027 10.1109 13.8438 10.1109H11.6899C11.3309 10.1109 11.0399 9.81992 11.0399 9.46094C11.0399 9.10195 11.3309 8.81094 11.6899 8.81094H13.8438Z" fill="#7E7E7E"/>
</g>
</g>
</svg>
