<svg width="20" height="20" viewBox="0 0 20 20" fill="none" xmlns="http://www.w3.org/2000/svg">
<g id="Group 427321081">
<g id="Group 427321076">
<path id="Union" fill-rule="evenodd" clip-rule="evenodd" d="M10.0116 1.4372C9.81172 1.32302 9.5664 1.32302 9.36657 1.4372L2.80407 5.1872C2.75934 5.21277 2.71839 5.24319 2.68173 5.2776C2.59588 5.35817 2.53358 5.46058 2.50141 5.5735C2.48477 5.63173 2.47664 5.69119 2.47656 5.75023V5.75156V5.75186V9.50186V13.2516C2.47656 13.4848 2.60155 13.7002 2.80407 13.8159L6.08545 15.691L6.08532 15.6912L9.36657 17.5662C9.5664 17.6804 9.81172 17.6804 10.0116 17.5662L13.2928 15.6912L13.2927 15.691L16.5741 13.8159C16.7766 13.7002 16.9016 13.4848 16.9016 13.2516V9.50186V5.76808C16.9046 5.65326 16.8772 5.53619 16.816 5.42918C16.7548 5.32198 16.6676 5.23884 16.5669 5.18314L10.0116 1.4372ZM12.6479 4.44099L9.68906 2.7502L6.73018 4.44099L6.7303 4.44122L4.4369 5.75173L9.68917 8.75304L14.9413 5.7518L12.6478 4.44122L12.6479 4.44099ZM15.6016 6.8718L10.3391 9.87895V15.8815L15.6016 12.8744V9.50186V6.8718ZM3.77656 6.87168V9.50186V12.8744L9.03906 15.8815V9.87882L3.77656 6.87168Z" fill="#7E7E7E"/>
</g>
</g>
</svg>
