<svg width="100%" height="100%" viewBox="0 0 14 14" xmlns="http://www.w3.org/2000/svg">
<path fill-rule="evenodd" clip-rule="evenodd" d="M0.252216 9.37443L3.75261 12.8754C4.09575 13.2186 4.6521 13.2186 4.99524 12.8754C5.33839 12.5322 5.33839 11.9758 4.99524 11.6326L2.98252 9.62825L13.1249 9.62825C13.6082 9.62825 14 9.23639 14 8.75301C14 8.26962 13.6082 7.87776 13.1249 7.87776L0.873536 7.87776C0.520257 7.87953 0.202689 8.09358 0.0684457 8.42041C-0.0685915 8.74635 0.00391162 9.12275 0.252216 9.37443ZM0.875099 6.13085L13.1265 6.13085C13.4797 6.12909 13.7973 5.91504 13.9316 5.5882C14.0686 5.26226 13.9961 4.88587 13.7478 4.63418L10.2474 1.13321C10.0831 0.967511 9.85941 0.87431 9.62607 0.87431C9.39274 0.87431 9.16907 0.967511 9.00475 1.13321C8.83909 1.29755 8.7459 1.52126 8.7459 1.75463C8.7459 1.988 8.83909 2.21171 9.00476 2.37605L11.0175 4.38036L0.875098 4.38036C0.391795 4.38036 1.17657e-06 4.77223 1.21882e-06 5.25561C1.26107e-06 5.73899 0.391796 6.13085 0.875099 6.13085Z" />
</svg>
