<svg width="100%" height="100%" viewBox="0 0 20 18" xmlns="http://www.w3.org/2000/svg">
<path id="reload 1 (Traced)" fill-rule="evenodd" clip-rule="evenodd" d="M7.72815 0.522259C4.13459 0.868798 1.14715 3.40444 0.253449 6.86655C0.0581482 7.62322 0 8.11313 0 9.00242C0 9.89171 0.0581482 10.3816 0.253449 11.1383C0.77377 13.154 2.03636 14.9222 3.79294 16.0953C5.10029 16.9684 6.74965 17.485 8.27379 17.4989C8.7767 17.5035 8.81266 17.4985 9.02283 17.3954C9.47616 17.173 9.73637 16.7642 9.73872 16.2706C9.73997 16.0138 9.7233 15.9414 9.61022 15.7119C9.4596 15.4063 9.20608 15.18 8.91044 15.0872C8.8078 15.055 8.53009 15.0182 8.29335 15.0054C7.09658 14.9409 6.1153 14.6213 5.15316 13.9826C4.61789 13.6272 3.9639 12.9978 3.60503 12.4926C3.12141 11.8118 2.72655 10.8787 2.57468 10.0578C2.47998 9.5458 2.47998 8.45904 2.57468 7.94709C2.72674 7.12515 3.1231 6.18907 3.60503 5.51362C3.8928 5.11033 4.52644 4.46532 4.9107 4.18453C6.50219 3.02155 8.48462 2.69073 10.3281 3.2805C12.1132 3.85155 13.5504 5.24568 14.1742 7.01125C14.2952 7.35372 14.4731 8.09984 14.4413 8.13158C14.4315 8.14131 14.0832 7.86423 13.6672 7.51589C12.7792 6.77231 12.6141 6.67913 12.1869 6.6805C11.8171 6.68171 11.5649 6.7858 11.3144 7.04048C11.0484 7.311 10.9544 7.54435 10.9571 7.92755C10.9595 8.27897 11.0419 8.50063 11.2602 8.74301C11.3287 8.81903 12.2123 9.57078 13.2238 10.4136C14.4703 11.4522 15.1318 11.9776 15.2764 12.0442C15.5974 12.1919 15.9729 12.1833 16.3034 12.0207C16.4394 11.9539 16.5972 11.8498 16.6539 11.7895C17.0379 11.3817 19.8298 7.98579 19.9028 7.83769C20.0368 7.56596 20.0316 7.109 19.8911 6.81359C19.5172 6.02709 18.488 5.83776 17.8884 6.4452C17.8067 6.52791 17.5609 6.81175 17.3421 7.07594C17.1234 7.34008 16.9305 7.55623 16.9134 7.55623C16.8965 7.55623 16.8825 7.52179 16.8825 7.47974C16.8825 7.30185 16.5979 6.315 16.4085 5.83635C15.9983 4.79939 15.3792 3.86832 14.5347 3.018C13.1876 1.66159 11.5767 0.84648 9.71395 0.578661C9.19864 0.504553 8.20441 0.476333 7.72815 0.522259Z" />
</svg>
