<svg width="28" height="28" viewBox="0 0 28 28" fill="none" xmlns="http://www.w3.org/2000/svg">
<g clip-path="url(#clip0_28555_17089)">
<path d="M14 28C21.732 28 28 21.732 28 14C28 6.26801 21.732 0 14 0C6.26801 0 0 6.26801 0 14C0 21.732 6.26801 28 14 28Z" fill="#EEEEEE"/>
<path d="M12.4706 15.7987C12.0588 12.7403 16.2353 12.0584 16.2353 10.1688C16.2353 8.98052 15.2941 8.31818 13.7451 8.31818C12.549 8.31818 11.5686 8.86364 10.6078 9.85714L9 8.3961C10.2549 6.95455 11.9804 6 14.0784 6C16.9216 6 19 7.32468 19 9.91558C19 12.7597 14.7059 13.1104 15.0196 15.7987H12.4706ZM13.7647 21C12.7451 21 12.0196 20.2792 12.0196 19.2662C12.0196 18.2532 12.7647 17.5519 13.7647 17.5519C14.7451 17.5519 15.4902 18.2532 15.4902 19.2662C15.4902 20.2792 14.7451 21 13.7647 21Z" fill="#C1C1C1"/>
</g>
<defs>
<clipPath id="clip0_28555_17089">
<rect width="28" height="28" fill="white"/>
</clipPath>
</defs>
</svg>
