<svg width="100%" height="100%" viewBox="0 0 36 36" fill="none" xmlns="http://www.w3.org/2000/svg">
<g id="Group 427321253">
<g id="Group 427321252">
<path id="Subtract" d="M33 18C33 26.2843 26.2843 33 18 33C9.71573 33 3 26.2843 3 18C3 9.71573 9.71573 3 18 3C26.2843 3 33 9.71573 33 18Z" fill="#3C3E41"/>
<path id="Vector" d="M23.8137 24.0086C23.5793 24.2429 23.2614 24.3745 22.93 24.3745C22.5985 24.3745 22.2806 24.2429 22.0462 24.0086L17.9925 19.9548L13.9387 24.0086C13.7029 24.2363 13.3872 24.3623 13.0595 24.3594C12.7317 24.3566 12.4182 24.2251 12.1864 23.9933C11.9547 23.7616 11.8232 23.4481 11.8204 23.1203C11.8175 22.7926 11.9435 22.4768 12.1712 22.2411L16.225 18.1873L12.1712 14.1336C11.9435 13.8978 11.8175 13.5821 11.8204 13.2543C11.8232 12.9266 11.9547 12.613 12.1864 12.3813C12.4182 12.1495 12.7317 12.0181 13.0595 12.0152C13.3872 12.0124 13.7029 12.1384 13.9387 12.3661L17.9925 16.4198L22.0462 12.3661C22.1623 12.25 22.3 12.1579 22.4517 12.0951C22.6033 12.0323 22.7658 12 22.93 12C23.0941 12 23.2566 12.0323 23.4082 12.0951C23.5599 12.1579 23.6976 12.25 23.8137 12.3661C23.9298 12.4821 24.0218 12.6199 24.0846 12.7715C24.1474 12.9232 24.1798 13.0857 24.1798 13.2498C24.1798 13.4139 24.1474 13.5765 24.0846 13.7281C24.0218 13.8797 23.9298 14.0175 23.8137 14.1336L19.76 18.1873L23.8137 22.2411C24.048 22.4755 24.1797 22.7934 24.1797 23.1248C24.1797 23.4563 24.048 23.7742 23.8137 24.0086Z" fill="white"/>
</g>
</g>
</svg>
