<svg width="100%" height="100%" viewBox="0 0 14 14" fill="none" xmlns="http://www.w3.org/2000/svg">
<g clip-path="url(#clip0_31754_128916)">
<path d="M13.4141 11.6641V8.16406H9.91406" stroke-width="1.5" stroke-linecap="round" stroke-linejoin="round"/>
<path d="M0.585938 2.33594V5.83594H4.08594" stroke-width="1.5" stroke-linecap="round" stroke-linejoin="round"/>
<path d="M11.9551 5.24862C11.6593 4.41258 11.1564 3.66511 10.4936 3.07595C9.83072 2.48679 9.02942 2.07515 8.16444 1.87944C7.29946 1.68372 6.399 1.71032 5.54708 1.95674C4.69516 2.20316 3.91954 2.66137 3.2926 3.28862L0.585938 5.83195M13.4193 8.16529L10.7126 10.7086C10.0857 11.3359 9.31005 11.7941 8.45813 12.0405C7.60621 12.2869 6.70575 12.3135 5.84077 12.1178C4.97579 11.9221 4.17449 11.5105 3.51163 10.9213C2.84877 10.3321 2.34595 9.58466 2.0501 8.74862" stroke-width="1.5" stroke-linecap="round" stroke-linejoin="round"/>
</g>
<defs>
<clipPath id="clip0_31754_128916">
<rect width="14" height="14" fill="white"/>
</clipPath>
</defs>
</svg>
