<svg width="100%" height="100%" viewBox="0 0 20 20" xmlns="http://www.w3.org/2000/svg">
<g id="Icons/User Interface/external-link-alt">
<path id="external-link-alt" fill-rule="evenodd" clip-rule="evenodd" d="M14.9998 9.01663C14.5396 9.01663 14.1665 9.38972 14.1665 9.84996V15.8333C14.1665 16.2935 13.7934 16.6666 13.3332 16.6666H4.1665C3.70627 16.6666 3.33317 16.2935 3.33317 15.8333V6.66663C3.33317 6.20639 3.70627 5.83329 4.1665 5.83329H10.1498C10.6101 5.83329 10.9832 5.4602 10.9832 4.99996C10.9832 4.53972 10.6101 4.16663 10.1498 4.16663H4.1665C2.78579 4.16663 1.6665 5.28591 1.6665 6.66663V15.8333C1.6665 17.214 2.78579 18.3333 4.1665 18.3333H13.3332C14.7139 18.3333 15.8332 17.214 15.8332 15.8333V9.84996C15.8332 9.38972 15.4601 9.01663 14.9998 9.01663ZM18.2665 2.18329C18.1819 1.97967 18.0201 1.81786 17.8165 1.73329C17.7163 1.69059 17.6087 1.66794 17.4998 1.66663H12.4998C12.0396 1.66663 11.6665 2.03972 11.6665 2.49996C11.6665 2.9602 12.0396 3.33329 12.4998 3.33329H15.4915L6.90817 11.9083C6.75041 12.0648 6.66167 12.2778 6.66167 12.5C6.66167 12.7222 6.75041 12.9352 6.90817 13.0916C7.06464 13.2494 7.27764 13.3381 7.49984 13.3381C7.72204 13.3381 7.93503 13.2494 8.0915 13.0916L16.6665 4.50829V7.49996C16.6665 7.9602 17.0396 8.33329 17.4998 8.33329C17.9601 8.33329 18.3332 7.9602 18.3332 7.49996V2.49996C18.3319 2.39106 18.3092 2.28348 18.2665 2.18329Z" />
</g>
</svg>
