<svg width="100%" height="100%" viewBox="0 0 20 20" xmlns="http://www.w3.org/2000/svg">
<path id="times-circle" fill-rule="evenodd" clip-rule="evenodd" d="M15.183 10C15.184 9.73661 15.0799 9.48369 14.8936 9.29744C14.7074 9.11119 14.4545 9.00704 14.1911 9.00812L10.9849 9.0151L10.9919 5.80896C10.9919 5.26116 10.5478 4.81708 10 4.81708C9.45224 4.81708 9.00817 5.26116 9.00817 5.80896L9.01515 9.0151L5.80901 9.00812C5.54562 9.00704 5.2927 9.11119 5.10645 9.29744C4.9202 9.48369 4.81605 9.73661 4.81713 10C4.81605 10.2634 4.9202 10.5163 5.10645 10.7026C5.2927 10.8888 5.54562 10.993 5.80901 10.9919L9.01515 10.9849L9.00817 14.191C9.00708 14.4544 9.11124 14.7073 9.29749 14.8936C9.48374 15.0798 9.73665 15.184 10 15.1829C10.2634 15.184 10.5164 15.0798 10.7026 14.8936C10.8888 14.7073 10.993 14.4544 10.9919 14.191L10.9849 10.9849L14.1911 10.9919C14.4545 10.993 14.7074 10.8888 14.8936 10.7026C15.0799 10.5163 15.184 10.2634 15.183 10ZM16.984 3.01599C14.5038 0.448047 10.831 -0.581832 7.37722 0.322191C3.92345 1.22621 1.22621 3.92345 0.322191 7.37722C-0.581832 10.831 0.448047 14.5038 3.01599 16.984C5.4962 19.552 9.16901 20.5818 12.6228 19.6778C16.0765 18.7738 18.7738 16.0765 19.6778 12.6228C20.5818 9.16901 19.552 5.4962 16.984 3.01599ZM15.5912 15.5911C12.9269 18.2584 8.74951 18.6723 5.61359 16.5797C2.47766 14.4871 1.25651 10.4708 2.69689 6.98683C4.13727 3.50284 7.83805 1.5214 11.5361 2.25419C15.2342 2.98699 17.8998 6.22995 17.9027 9.99995C17.9099 12.0976 17.0775 14.1109 15.5912 15.5911Z" />
</svg>
