<svg width="16" height="16" viewBox="0 0 16 16" fill="none" xmlns="http://www.w3.org/2000/svg">
<g clip-path="url(#clip0_29498_71965)">
<path d="M8.0026 14.6693C4.32927 14.6693 1.33594 11.6759 1.33594 8.0026C1.33594 4.32927 4.32927 1.33594 8.0026 1.33594C11.6759 1.33594 14.6693 4.32927 14.6693 8.0026C14.6693 11.6759 11.6759 14.6693 8.0026 14.6693ZM8.0026 2.66927C5.0626 2.66927 2.66927 5.0626 2.66927 8.0026C2.66927 10.9426 5.0626 13.3359 8.0026 13.3359C10.9426 13.3359 13.3359 10.9426 13.3359 8.0026C13.3359 5.0626 10.9426 2.66927 8.0026 2.66927Z" fill="#BFC6CD"/>
<path d="M7.99813 5.58219C8.50626 5.58219 8.91813 5.17029 8.91813 4.66219C8.91813 4.15409 8.50626 3.74219 7.99813 3.74219C7.49006 3.74219 7.07812 4.15409 7.07812 4.66219C7.07812 5.17029 7.49006 5.58219 7.99813 5.58219Z" fill="#BFC6CD"/>
<path d="M8.0026 11.9974C7.63594 11.9974 7.33594 11.6974 7.33594 11.3307V7.33074C7.33594 6.96408 7.63594 6.66406 8.0026 6.66406C8.36927 6.66406 8.66927 6.96408 8.66927 7.33074V11.3307C8.66927 11.6974 8.36927 11.9974 8.0026 11.9974Z" fill="#BFC6CD"/>
</g>
<defs>
<clipPath id="clip0_29498_71965">
<rect width="16" height="16" fill="white"/>
</clipPath>
</defs>
</svg>
