<svg width="100%" height="100%" viewBox="0 0 36 36" xmlns="http://www.w3.org/2000/svg">
<path d="M18 33C9.71625 33 3 26.2838 3 18C3 9.71625 9.71625 3 18 3C26.2838 3 33 9.71625 33 18C33 26.2838 26.2838 33 18 33ZM18 5.5C11.0963 5.5 5.5 11.0963 5.5 18C5.5 24.9037 11.0963 30.5 18 30.5C24.9037 30.5 30.5 24.9037 30.5 18C30.5 11.0963 24.9037 5.5 18 5.5ZM23.8213 23.8213C23.5868 24.0556 23.269 24.1872 22.9375 24.1872C22.606 24.1872 22.2882 24.0556 22.0537 23.8213L18 19.7675L13.9462 23.8213C13.7105 24.0489 13.3947 24.1749 13.067 24.1721C12.7393 24.1692 12.4257 24.0378 12.194 23.806C11.9622 23.5743 11.8308 23.2607 11.8279 22.933C11.8251 22.6053 11.9511 22.2895 12.1788 22.0537L16.2325 18L12.1788 13.9462C11.9511 13.7105 11.8251 13.3947 11.8279 13.067C11.8308 12.7393 11.9622 12.4257 12.194 12.194C12.4257 11.9622 12.7393 11.8308 13.067 11.8279C13.3947 11.8251 13.7105 11.9511 13.9462 12.1788L18 16.2325L22.0537 12.1788C22.1698 12.0627 22.3076 11.9706 22.4592 11.9078C22.6109 11.845 22.7734 11.8127 22.9375 11.8127C23.1016 11.8127 23.2641 11.845 23.4158 11.9078C23.5674 11.9706 23.7052 12.0627 23.8213 12.1788C23.9373 12.2948 24.0294 12.4326 24.0922 12.5842C24.155 12.7359 24.1873 12.8984 24.1873 13.0625C24.1873 13.2266 24.155 13.3891 24.0922 13.5408C24.0294 13.6924 23.9373 13.8302 23.8213 13.9462L19.7675 18L23.8213 22.0537C24.0556 22.2882 24.1872 22.606 24.1872 22.9375C24.1872 23.269 24.0556 23.5868 23.8213 23.8213Z" />
</svg>
