<svg width="100%" height="100%" viewBox="0 0 26 25" fill="none" xmlns="http://www.w3.org/2000/svg">
<g id="Group 427321065">
<path id="Vector" d="M9.66034 23.7601C7.70553 23.1781 5.96551 22.0976 4.58772 20.666C5.10171 20.0568 5.41146 19.2697 5.41146 18.4103C5.41146 16.4773 3.84446 14.9103 1.91146 14.9103C1.79453 14.9103 1.67894 14.916 1.56495 14.9272C1.40967 14.168 1.32812 13.382 1.32812 12.5769C1.32812 11.3574 1.51524 10.1816 1.86234 9.07658C1.87868 9.07681 1.89506 9.07692 1.91146 9.07692C3.84446 9.07692 5.41146 7.50992 5.41146 5.57693C5.41146 5.022 5.28231 4.49729 5.05248 4.0311C6.40167 2.77657 8.04842 1.83771 9.87518 1.33203C10.454 2.46664 11.6337 3.24361 12.9948 3.24361C14.3559 3.24361 15.5356 2.46664 16.1144 1.33203C17.9412 1.83771 19.5879 2.77657 20.9371 4.0311C20.7073 4.49729 20.5781 5.022 20.5781 5.57693C20.5781 7.50992 22.1451 9.07692 24.0781 9.07692C24.0945 9.07692 24.1109 9.07681 24.1272 9.07658C24.4743 10.1816 24.6615 11.3574 24.6615 12.5769C24.6615 13.382 24.5799 14.168 24.4246 14.9272C24.3106 14.916 24.1951 14.9103 24.0781 14.9103C22.1451 14.9103 20.5781 16.4773 20.5781 18.4103C20.5781 19.2697 20.8879 20.0568 21.4019 20.666C20.0241 22.0976 18.2841 23.1781 16.3292 23.7601C15.8781 22.3489 14.5558 21.3269 12.9948 21.3269C11.4338 21.3269 10.1115 22.3489 9.66034 23.7601Z" stroke="#686867" stroke-width="1.5" stroke-linejoin="round"/>
<path id="Vector_2" d="M12.9896 16.6628C15.2448 16.6628 17.0729 14.8346 17.0729 12.5794C17.0729 10.3243 15.2448 8.49609 12.9896 8.49609C10.7344 8.49609 8.90625 10.3243 8.90625 12.5794C8.90625 14.8346 10.7344 16.6628 12.9896 16.6628Z" stroke="#686867" stroke-width="1.5" stroke-linejoin="round"/>
</g>
</svg>
