<svg width="100%" height="100%" viewBox="0 0 171 22" fill="none" xmlns="http://www.w3.org/2000/svg">
<path d="M24 6.2H35.956V8.16H31.056V16H28.9V8.16H24V6.2ZM41.7446 16C39.5326 16 37.7266 14.236 37.7266 12.08V10.12C37.7266 7.95 39.5326 6.2 41.7446 6.2H46.6446C48.8706 6.2 50.6626 7.95 50.6626 10.12V12.08C50.6626 14.236 48.8706 16 46.6446 16H41.7446ZM41.7446 8.16C40.7226 8.16 39.8826 9.042 39.8826 10.12V12.08C39.8826 13.158 40.7226 14.04 41.7446 14.04H46.6446C47.6806 14.04 48.5066 13.158 48.5066 12.08V10.12C48.5066 9.042 47.6806 8.16 46.6446 8.16H41.7446ZM64.3798 6.2V8.16C64.3798 9.322 63.8478 10.372 63.0078 11.1C63.8478 11.814 64.3798 12.864 64.3798 14.04V16H62.2238V14.04C62.2238 12.962 61.3838 12.08 60.3618 12.08H54.5798V16H52.4238V6.2H54.5798V10.12H60.3618C61.3838 10.12 62.2238 9.238 62.2238 8.16V6.2H64.3798ZM68.3064 12.08V13.06C68.3064 13.592 68.6984 14.04 69.1884 14.04H78.1064V16H69.1884C67.5084 16 66.1504 14.684 66.1504 13.06V9.14C66.1504 7.516 67.5084 6.2 69.1884 6.2H78.1064V8.16H69.1884C68.6984 8.16 68.3064 8.594 68.3064 9.14V10.12H77.1264V12.08H68.3064ZM89.775 16C87.563 16 85.757 14.236 85.757 12.08V10.12C85.757 9.042 84.917 8.16 83.895 8.16H82.915C82.425 8.16 82.033 8.594 82.033 9.14V16H79.877V9.14C79.877 7.516 81.235 6.2 82.915 6.2H83.895C86.107 6.2 87.913 7.95 87.913 10.12V12.08C87.913 13.158 88.753 14.04 89.775 14.04C90.265 14.04 90.657 13.592 90.657 13.06V6.2H92.813V13.06C92.813 14.684 91.455 16 89.775 16ZM102.408 16V9.14C102.408 7.516 103.766 6.2 105.446 6.2H112.306C113.986 6.2 115.344 7.516 115.344 9.14V10.12C115.344 11.744 113.986 13.06 112.306 13.06H104.564V16H102.408ZM112.306 11.1C112.796 11.1 113.188 10.652 113.188 10.12V9.14C113.188 8.594 112.796 8.16 112.306 8.16H105.446C104.956 8.16 104.564 8.594 104.564 9.14V11.1H112.306ZM127.003 12.08H126.121C126.121 13.158 126.961 14.04 127.983 14.04H130.041V16H127.983C125.771 16 123.965 14.236 123.965 12.08H119.261V16H117.105V9.14C117.105 7.516 118.463 6.2 120.143 6.2H127.003C128.683 6.2 130.041 7.516 130.041 9.14C130.041 10.764 128.683 12.08 127.003 12.08ZM119.261 9.14V10.12H127.003C127.493 10.12 127.885 9.672 127.885 9.14C127.885 8.594 127.493 8.16 127.003 8.16H120.143C119.653 8.16 119.261 8.594 119.261 9.14ZM131.803 16V6.2H133.959V16H131.803ZM138.765 16C137.085 16 135.727 14.684 135.727 13.06C135.727 11.436 137.085 10.12 138.765 10.12H145.625C146.115 10.12 146.507 9.672 146.507 9.14C146.507 8.594 146.115 8.16 145.625 8.16H136.707V6.2H145.625C147.305 6.2 148.663 7.516 148.663 9.14C148.663 10.764 147.305 12.08 145.625 12.08H138.765C138.275 12.08 137.883 12.514 137.883 13.06C137.883 13.592 138.275 14.04 138.765 14.04H148.663V16H138.765ZM152.58 12.08V13.06C152.58 13.592 152.972 14.04 153.462 14.04H162.38V16H153.462C151.782 16 150.424 14.684 150.424 13.06V9.14C150.424 7.516 151.782 6.2 153.462 6.2H162.38V8.16H153.462C152.972 8.16 152.58 8.594 152.58 9.14V10.12H161.4V12.08H152.58Z" fill="#23282D"/>
<path d="M169.5 12.7661L170.143 12L170.909 12.6428L170.266 13.4088L169.5 12.7661Z" fill="#25BEFF"/>
<path d="M25 20.5229H164.25L169 14.2729" stroke="#25BEFF"/>
<path d="M1.77778 7.22222L4 5H8H16V13V17L14.2222 18.7778L12 21H8H0V13V9L1.77778 7.22222Z" fill="#25BEFF"/>
<path d="M3.5 8.5V17.5H12.5" stroke="white" stroke-linecap="square"/>
<path d="M5.5 15.5L7.5 11.5L10 13.75L12.5 8.5" stroke="white" stroke-linecap="square"/>
</svg>
