<svg width="100%" height="100%" viewBox="0 0 32 32" fill="none" xmlns="http://www.w3.org/2000/svg">
<path d="M27.2708 27.3905C25.7815 28.8826 24.0077 30.0594 22.0549 30.8508C20.1021 31.6422 18.0102 32.032 15.9039 31.9971C13.8096 32.0376 11.7292 31.65 9.78962 30.8579C7.85009 30.0658 6.09226 28.886 4.62358 27.3905C3.12061 25.9251 1.93484 24.1657 1.14003 22.2218C0.345215 20.2778 -0.0416337 18.1909 0.00354715 16.0908C0.00354715 11.4921 1.54356 7.6611 4.62358 4.5979C6.09326 3.10454 7.85155 1.92688 9.79103 1.13687C11.7305 0.346863 13.8105 -0.0389178 15.9039 0.00309766C18.0094 -0.0333631 20.1008 0.354626 22.0535 1.14398C24.0063 1.93334 25.7806 3.10794 27.2708 4.5979C30.4217 7.6611 31.9972 11.4921 31.9972 16.0908C32.038 18.1999 31.6387 20.2944 30.8248 22.2401C30.011 24.1859 28.8005 25.9401 27.2708 27.3905Z" fill="#E8E8E8"/>
<path d="M16.0016 5.02734L9.60156 15.9336L16.0016 12.9448V5.02734Z" fill="#8B8B8B"/>
<path d="M16.0016 12.9453L9.60156 15.9341L16.0016 19.817V12.9453Z" fill="#393939"/>
<path d="M16 5.02734V12.9448L22.3939 15.9336L16 5.02734Z" fill="#343434"/>
<path d="M16 12.9453V19.817L22.3939 15.9341L16 12.9453Z" fill="#161616"/>
<path d="M9.60156 17.1797L16.0016 26.4431V21.0658L9.60156 17.1797Z" fill="#8B8B8B"/>
<path d="M22.4 17.1797L16 21.0658V26.4431L22.4 17.1797Z" fill="#343434"/>
</svg>
