<svg width="100%" height="100%" viewBox="0 0 32 32" fill="none" xmlns="http://www.w3.org/2000/svg">
<g clip-path="url(#clip0_28612_40711)">
<path d="M16 32C24.8366 32 32 24.8366 32 16C32 7.16344 24.8366 0 16 0C7.16344 0 0 7.16344 0 16C0 24.8366 7.16344 32 16 32Z" fill="#8247E5"/>
<path d="M21.2975 12.576C20.9138 12.3527 20.4148 12.3527 19.9927 12.576L16.9993 14.2876L14.9654 15.4039L11.9721 17.1155C11.5883 17.3388 11.0894 17.3388 10.6673 17.1155L8.28791 15.776C7.90416 15.5527 7.63553 15.1434 7.63553 14.6969V12.055C7.63553 11.6085 7.86578 11.1992 8.28791 10.976L10.6289 9.67363C11.0126 9.45038 11.5115 9.45038 11.9337 9.67363L14.2746 10.976C14.6584 11.1992 14.927 11.6085 14.927 12.055V13.7667L16.961 12.6132V10.9015C16.961 10.455 16.7307 10.0457 16.3086 9.82247L11.9721 7.36666C11.5883 7.14341 11.0894 7.14341 10.6673 7.36666L6.25397 9.82247C5.83181 10.0457 5.60156 10.455 5.60156 10.9015V15.8504C5.60156 16.2969 5.83181 16.7062 6.25397 16.9294L10.6673 19.3853C11.051 19.6085 11.5499 19.6085 11.9721 19.3853L14.9654 17.7108L16.9993 16.5573L19.9927 14.8829C20.3765 14.6597 20.8754 14.6597 21.2975 14.8829L23.6385 16.1853C24.0222 16.4085 24.2909 16.8178 24.2909 17.2643V19.9062C24.2909 20.3527 24.0606 20.762 23.6385 20.9853L21.2975 22.3248C20.9138 22.5481 20.4148 22.5481 19.9927 22.3248L17.6518 21.0225C17.268 20.7992 16.9993 20.3899 16.9993 19.9434V18.2318L14.9654 19.3853V21.0969C14.9654 21.5434 15.1957 21.9527 15.6178 22.176L20.0311 24.6318C20.4148 24.855 20.9138 24.855 21.3359 24.6318L25.7492 22.176C26.1329 21.9527 26.4016 21.5434 26.4016 21.0969V16.1481C26.4016 15.7015 26.1713 15.2923 25.7492 15.069L21.2975 12.576Z" fill="white"/>
</g>
<defs>
<clipPath id="clip0_28612_40711">
<rect width="32" height="32" fill="white"/>
</clipPath>
</defs>
</svg>
