<svg width="18" height="18" viewBox="0 0 18 18" fill="none" xmlns="http://www.w3.org/2000/svg">
<path fill-rule="evenodd" clip-rule="evenodd" d="M9 0C4 0 0 4 0 9C0 14 4 18 9 18C9.63967 18 10.263 17.9345 10.8636 17.8099C10.3186 17.0091 10 16.0417 10 15C10 12.2386 12.2386 10 15 10C16.0417 10 17.0091 10.3186 17.8099 10.8636C17.9345 10.263 18 9.63967 18 9C18 4 14 0 9 0Z" fill="#4128D1"/>
<mask id="mask0_25276_80686" style="mask-type:alpha" maskUnits="userSpaceOnUse" x="0" y="0" width="18" height="18">
<path fill-rule="evenodd" clip-rule="evenodd" d="M9 0C4 0 0 4 0 9C0 14 4 18 9 18C9.63967 18 10.263 17.9345 10.8636 17.8099C10.3186 17.0091 10 16.0417 10 15C10 12.2386 12.2386 10 15 10C16.0417 10 17.0091 10.3186 17.8099 10.8636C17.9345 10.263 18 9.63967 18 9C18 4 14 0 9 0Z" fill="#4128D1"/>
</mask>
<g mask="url(#mask0_25276_80686)">
<path d="M15.0001 8.88908C15.0001 9.4847 14.8643 10.0531 14.6276 10.5592C14.4452 10.9446 14.2047 11.291 13.9136 11.5947C13.8981 11.6103 13.8826 11.6297 13.8632 11.6453C13.1609 12.3499 12.1908 12.7859 11.1199 12.7859H8.40755C8.20578 12.7859 8.02729 12.6419 7.98848 12.4434C7.97684 12.385 7.97684 12.3227 7.98848 12.2682C8.02729 12.0735 8.19802 11.9217 8.41143 11.9217H9.00899C9.24569 11.9217 9.4397 11.7271 9.4397 11.4896C9.4397 11.3689 9.38926 11.2599 9.31165 11.182C9.23405 11.1042 9.1254 11.0575 9.00511 11.0575H8.06221C8.03505 11.0575 8.01177 11.0536 7.9846 11.0497C7.81387 11.0185 7.67806 10.8901 7.63926 10.7149C7.6315 10.6837 7.62762 10.6526 7.62762 10.6214C7.62762 10.3879 7.81387 10.1893 8.05833 10.1893H11.116C11.8299 10.1893 12.4081 9.60928 12.4081 8.89297C12.4081 8.17666 11.8299 7.59661 11.116 7.59661H7.34824C7.14259 7.59661 6.96797 7.45257 6.92529 7.25014C6.91753 7.21899 6.91753 7.19174 6.91753 7.16449C6.91753 7.13335 6.92141 7.1061 6.92529 7.07495C6.96409 6.8842 7.13483 6.73237 7.34824 6.73237H9.00123C9.23793 6.73237 9.43194 6.53772 9.43194 6.30025C9.43194 6.17957 9.3815 6.07057 9.30389 5.99271C9.22629 5.91485 9.11764 5.86424 8.99735 5.86424H6.99514C6.96797 5.86424 6.94469 5.86035 6.92141 5.85645C6.7468 5.82531 6.60711 5.69295 6.56831 5.51387C6.56055 5.48273 6.56055 5.45548 6.56055 5.42823C6.56055 5.24526 6.67695 5.08564 6.84381 5.02725C6.89037 5.01168 6.93693 5 6.98738 5H11.1199C11.5777 5 12.0317 5.07397 12.4624 5.23358C13.4015 5.58395 14.1697 6.29247 14.6043 7.18785C14.8604 7.70951 15.0001 8.28177 15.0001 8.88908Z" fill="white"/>
<path d="M4.95805 6.73533H5.81947C6.05617 6.73533 6.25018 6.54068 6.25018 6.30321C6.25018 6.06574 6.05617 5.87109 5.81947 5.87109H4.95805C4.72136 5.87109 4.52734 6.06574 4.52734 6.30321C4.52734 6.54068 4.72136 6.73533 4.95805 6.73533Z" fill="#35DBC0"/>
<path d="M4.07483 6.30321C4.07483 6.06574 3.88082 5.87109 3.64412 5.87109H3.43071C3.19401 5.87109 3 6.06574 3 6.30321C3 6.54068 3.19401 6.73533 3.43071 6.73533H3.64412C3.88082 6.73533 4.07483 6.54068 4.07483 6.30321Z" fill="#35DBC0"/>
<path d="M6.65745 11.0547H4.93462C4.69792 11.0547 4.50391 11.2493 4.50391 11.4868C4.50391 11.7243 4.69792 11.9189 4.93462 11.9189H6.65745C6.89415 11.9189 7.08816 11.7243 7.08816 11.4868C7.08816 11.2454 6.89803 11.0547 6.65745 11.0547Z" fill="#35DBC0"/>
<path d="M5.42792 10.1963H5.85863C6.09532 10.1963 6.28934 10.0016 6.28934 9.76415C6.28934 9.52668 6.09532 9.33203 5.85863 9.33203H5.4318C5.4318 9.33203 5.4318 9.33203 5.42792 9.33203H4.13579C3.89909 9.33203 3.70508 9.52668 3.70508 9.76415C3.70508 10.0016 3.89909 10.1963 4.13579 10.1963H5.42792Z" fill="#35DBC0"/>
<path d="M5.78329 7.59766H5.35258C5.11589 7.59766 4.92188 7.7923 4.92188 8.02978C4.92188 8.26725 5.11589 8.4619 5.35258 8.4619H5.78329C5.78717 8.4619 5.78717 8.4619 5.78717 8.4619H6.214C6.4507 8.4619 6.64471 8.26725 6.64471 8.02978C6.64471 7.7923 6.4507 7.59766 6.214 7.59766H5.78329Z" fill="#35DBC0"/>
<path d="M4.95805 6.73533H5.81947C6.05617 6.73533 6.25018 6.54068 6.25018 6.30321C6.25018 6.06574 6.05617 5.87109 5.81947 5.87109H4.95805C4.72136 5.87109 4.52734 6.06574 4.52734 6.30321C4.52734 6.54068 4.72136 6.73533 4.95805 6.73533Z" fill="#35DBC0"/>
<path d="M5.78329 7.59766H5.35258C5.11589 7.59766 4.92188 7.7923 4.92188 8.02978C4.92188 8.26725 5.11589 8.4619 5.35258 8.4619H5.78329C5.78717 8.4619 5.78717 8.4619 5.78717 8.4619H6.214C6.4507 8.4619 6.64471 8.26725 6.64471 8.02978C6.64471 7.7923 6.4507 7.59766 6.214 7.59766H5.78329Z" fill="#35DBC0"/>
</g>
<path d="M18 15C18 16.6569 16.6569 18 15 18C13.3431 18 12 16.6569 12 15C12 13.3431 13.3431 12 15 12C16.6569 12 18 13.3431 18 15Z" fill="#989898"/>
</svg>
