<svg width="28" height="28" viewBox="0 0 28 28" fill="none" xmlns="http://www.w3.org/2000/svg">
<circle cx="14" cy="14" r="14" fill="url(#paint0_linear_16523_145119)"/>
<path d="M22.6152 14.0746C22.6152 16.9791 21.1186 20.031 18.4474 21.4838C16.801 22.4184 14.554 22.6155 12.6584 22.6155H8.61523V19.6367H12.5577C14.0794 19.6367 15.3772 19.5623 16.7996 18.8C18.4964 17.8888 19.4204 15.9452 19.4204 14.0732C19.4204 12.4728 18.747 10.8738 17.5486 9.8151C15.9023 8.41186 13.931 8.3636 11.8591 8.3636H8.61523V5.38477H12.5828C15.0286 5.38477 17.8482 5.75414 19.7452 7.37799C21.617 9.02803 22.6152 11.6127 22.6152 14.0746Z" fill="white"/>
<defs>
<linearGradient id="paint0_linear_16523_145119" x1="0" y1="14" x2="28" y2="14" gradientUnits="userSpaceOnUse">
<stop stop-color="#487DFF"/>
<stop offset="1" stop-color="#5FC7FF"/>
</linearGradient>
</defs>
</svg>
