<svg width="48" height="48" viewBox="0 0 48 48" fill="none" xmlns="http://www.w3.org/2000/svg">
<mask id="mask0_13112_127426" style="mask-type:alpha" maskUnits="userSpaceOnUse" x="0" y="0" width="48" height="48">
<rect width="48" height="48" fill="#D9D9D9"/>
</mask>
<g mask="url(#mask0_13112_127426)">
</g>
<g clip-path="url(#clip0_13112_127426)">
<path d="M44.719 29.2243C43.6859 33.3857 41.4418 37.1474 38.2705 40.0334C35.0993 42.9194 31.1433 44.8002 26.9029 45.4379C22.6625 46.0756 18.3283 45.4415 14.4484 43.6159C10.5684 41.7902 7.3171 38.855 5.10559 35.1815C2.89408 31.508 1.82173 27.2611 2.02418 22.9782C2.22663 18.6952 3.69479 14.5684 6.24295 11.1199C8.79112 7.67128 12.3048 5.05581 16.3397 3.60423C20.3745 2.15265 24.7493 1.93017 28.9106 2.96494C34.4867 4.35527 39.2833 7.90135 42.2472 12.8247C45.2111 17.748 46.1001 23.6461 44.719 29.2243Z" fill="#F7931A"/>
<path d="M33.2323 20.9142C33.6756 18.0335 31.4594 16.4812 28.4677 15.4481L29.4278 11.5335L27.0639 10.9425L26.1038 14.7462C25.4759 14.5986 24.848 14.4509 24.1832 14.3029L25.1436 10.4618L22.7795 9.87109L21.8191 13.75C21.302 13.6392 20.785 13.5284 20.3048 13.3807L17.0176 12.5673L16.3897 15.1156C16.3897 15.1156 18.1625 15.5218 18.1245 15.5589C19.0849 15.8174 19.2694 16.4453 19.2328 16.9254L18.1245 21.3944C18.2138 21.4065 18.3008 21.4314 18.383 21.4683L18.1245 21.3944L16.5742 27.6361C16.5411 27.7474 16.4855 27.8507 16.4108 27.9397C16.3362 28.0286 16.244 28.1013 16.1402 28.1533C16.0363 28.2052 15.9228 28.2353 15.8069 28.2417C15.6909 28.248 15.5748 28.2305 15.4659 28.1902C15.5028 28.2271 13.7311 27.7469 13.7311 27.7469L12.5483 30.4797L15.651 31.2553C16.242 31.403 16.7959 31.5507 17.3501 31.6986L16.3528 35.6503L18.7167 36.2413L19.714 32.3623C20.3787 32.5469 21.0066 32.6948 21.5977 32.8425L20.6373 36.7214L23.0011 37.3124L23.9984 33.3615C28.0614 34.137 31.1269 33.8048 32.3832 30.1482C33.4173 27.1935 32.3463 25.4947 30.2041 24.3867C31.7553 24.0542 32.9374 23.0202 33.2328 20.9149L33.2323 20.9142ZM27.8027 28.5224C27.0639 31.4772 22.0776 29.889 20.4893 29.4828L21.782 24.2383C23.4074 24.6445 28.5785 25.4569 27.8027 28.5224ZM28.5414 20.8774C27.8766 23.5736 23.7396 22.207 22.3733 21.8745L23.5551 17.1102C24.9217 17.4427 29.2432 18.0706 28.5414 20.8774Z" fill="white"/>
</g>
<path fill-rule="evenodd" clip-rule="evenodd" d="M33.1402 27.4959C34.1188 26.9636 35.3005 26.9636 36.279 27.4959L41.9521 30.5817C43.0091 31.1567 43.6671 32.2636 43.6671 33.4669V39.3071C43.6671 40.5103 43.0091 41.6173 41.9521 42.1923L36.279 45.2781C35.3005 45.8104 34.1188 45.8104 33.1402 45.2781L27.4672 42.1923C26.4102 41.6173 25.7522 40.5103 25.7522 39.3071L25.7522 33.4669C25.7522 32.2636 26.4102 31.1567 27.4672 30.5817L33.1402 27.4959Z" fill="#23282D"/>
<g clip-path="url(#clip1_13112_127426)">
<path d="M34.7097 43.8196C38.8144 43.8196 42.142 40.492 42.142 36.3873C42.142 32.2826 38.8144 28.9551 34.7097 28.9551C30.605 28.9551 27.2775 32.2826 27.2775 36.3873C27.2775 40.492 30.605 43.8196 34.7097 43.8196Z" fill="#23282D"/>
</g>
<path d="M37.6298 34.8651C37.407 34.7355 37.1173 34.7355 36.8722 34.8651L35.1341 35.859L33.9531 36.5072L32.215 37.501C31.9922 37.6306 31.7025 37.6306 31.4574 37.501L30.0759 36.7232C29.853 36.5936 29.6971 36.3559 29.6971 36.0967V34.5627C29.6971 34.3034 29.8308 34.0657 30.0759 33.9361L31.4351 33.1799C31.658 33.0503 31.9476 33.0503 32.1928 33.1799L33.552 33.9361C33.7749 34.0657 33.9308 34.3034 33.9308 34.5627V35.5565L35.1118 34.8868V33.8929C35.1118 33.6336 34.9781 33.396 34.733 33.2663L32.215 31.8404C31.9922 31.7108 31.7025 31.7108 31.4574 31.8404L28.8949 33.2663C28.6497 33.396 28.5161 33.6336 28.5161 33.8929V36.7664C28.5161 37.0257 28.6497 37.2633 28.8949 37.393L31.4574 38.8189C31.6803 38.9486 31.9699 38.9486 32.215 38.8189L33.9531 37.8467L35.1341 37.1769L36.8722 36.2047C37.095 36.075 37.3847 36.075 37.6298 36.2047L38.9891 36.9609C39.2119 37.0905 39.3679 37.3281 39.3679 37.5874V39.1214C39.3679 39.3807 39.2342 39.6183 38.9891 39.748L37.6298 40.5258C37.407 40.6554 37.1173 40.6554 36.8722 40.5258L35.5129 39.7696C35.2901 39.6399 35.1341 39.4023 35.1341 39.143V38.1492L33.9531 38.8189V39.8128C33.9531 40.072 34.0868 40.3097 34.3319 40.4393L36.8945 41.8653C37.1173 41.9949 37.407 41.9949 37.6521 41.8653L40.2146 40.4393C40.4375 40.3097 40.5935 40.072 40.5935 39.8128V36.9393C40.5935 36.68 40.4598 36.4423 40.2146 36.3127L37.6298 34.8651Z" fill="white"/>
<defs>
<clipPath id="clip0_13112_127426">
<rect width="43.3548" height="43.3548" fill="white" transform="translate(2 2.32227)"/>
</clipPath>
<clipPath id="clip1_13112_127426">
<rect width="14.8645" height="14.8645" fill="white" transform="translate(27.2775 28.9551)"/>
</clipPath>
</defs>
</svg>
