<svg width="48" height="48" viewBox="0 0 48 48" fill="none" xmlns="http://www.w3.org/2000/svg">
<mask id="mask0_21761_36539" style="mask-type:alpha" maskUnits="userSpaceOnUse" x="0" y="0" width="48" height="48">
<rect width="48" height="48" fill="#D9D9D9"/>
</mask>
<g mask="url(#mask0_21761_36539)">
</g>
<g clip-path="url(#clip0_21761_36539)">
<path d="M23.675 45.6723C35.6458 45.6723 45.35 35.968 45.35 23.9973C45.35 12.0265 35.6458 2.32227 23.675 2.32227C11.7042 2.32227 2 12.0265 2 23.9973C2 35.968 11.7042 45.6723 23.675 45.6723Z" fill="url(#paint0_linear_21761_36539)"/>
<path d="M33.1606 32.6337L25.8313 14.9138C25.4179 13.9977 24.8034 13.5508 23.9934 13.5508H23.3454C22.5354 13.5508 21.9209 13.9977 21.5075 14.9138L18.3177 22.6342H15.9044C15.1837 22.6398 14.5972 23.2207 14.5916 23.947V23.9637C14.5972 24.6844 15.1837 25.2709 15.9044 25.2765H17.2004L14.1558 32.6337C14.1 32.7957 14.0665 32.9633 14.0665 33.1365C14.0665 33.5499 14.195 33.8739 14.424 34.1253C14.653 34.3767 14.9826 34.4996 15.396 34.4996C15.6697 34.494 15.9323 34.4102 16.1502 34.2482C16.3848 34.0862 16.5468 33.8515 16.6753 33.5834L20.0271 25.2709H22.351C23.0716 25.2653 23.6582 24.6844 23.6638 23.9581V23.9246C23.6582 23.204 23.0716 22.6174 22.351 22.6118H21.1108L23.6694 16.2378L30.6411 33.5778C30.7696 33.846 30.9316 34.0806 31.1663 34.2426C31.3841 34.4046 31.6523 34.4884 31.9204 34.494C32.3338 34.494 32.6578 34.3711 32.8924 34.1197C33.1271 33.8683 33.25 33.5443 33.25 33.1309C33.2555 32.9633 33.2276 32.7901 33.1606 32.6337Z" fill="white"/>
</g>
<path fill-rule="evenodd" clip-rule="evenodd" d="M33.1402 27.4959C34.1188 26.9636 35.3005 26.9636 36.279 27.4959L41.9521 30.5817C43.0091 31.1567 43.6671 32.2636 43.6671 33.4669V39.3071C43.6671 40.5103 43.0091 41.6173 41.9521 42.1923L36.279 45.2781C35.3005 45.8104 34.1188 45.8104 33.1402 45.2781L27.4672 42.1923C26.4102 41.6173 25.7522 40.5103 25.7522 39.3071L25.7522 33.4669C25.7522 32.2636 26.4102 31.1567 27.4672 30.5817L33.1402 27.4959Z" fill="#8247E5"/>
<g clip-path="url(#clip1_21761_36539)">
<path d="M34.7097 43.8196C38.8144 43.8196 42.142 40.492 42.142 36.3873C42.142 32.2826 38.8144 28.9551 34.7097 28.9551C30.605 28.9551 27.2775 32.2826 27.2775 36.3873C27.2775 40.492 30.605 43.8196 34.7097 43.8196Z" fill="#8247E5"/>
</g>
<path d="M37.6298 34.8647C37.407 34.735 37.1173 34.735 36.8722 34.8647L35.1341 35.8585L33.9531 36.5067L32.215 37.5005C31.9922 37.6301 31.7025 37.6301 31.4574 37.5005L30.0759 36.7227C29.853 36.5931 29.6971 36.3554 29.6971 36.0962V34.5622C29.6971 34.3029 29.8308 34.0653 30.0759 33.9356L31.4351 33.1794C31.658 33.0498 31.9476 33.0498 32.1928 33.1794L33.552 33.9356C33.7749 34.0653 33.9308 34.3029 33.9308 34.5622V35.556L35.1118 34.8863V33.8924C35.1118 33.6331 34.9781 33.3955 34.733 33.2659L32.215 31.8399C31.9922 31.7103 31.7025 31.7103 31.4574 31.8399L28.8949 33.2659C28.6497 33.3955 28.5161 33.6331 28.5161 33.8924V36.7659C28.5161 37.0252 28.6497 37.2628 28.8949 37.3925L31.4574 38.8184C31.6803 38.9481 31.9699 38.9481 32.215 38.8184L33.9531 37.8462L35.1341 37.1764L36.8722 36.2042C37.095 36.0746 37.3847 36.0746 37.6298 36.2042L38.9891 36.9604C39.2119 37.09 39.3679 37.3277 39.3679 37.5869V39.1209C39.3679 39.3802 39.2342 39.6178 38.9891 39.7475L37.6298 40.5253C37.407 40.6549 37.1173 40.6549 36.8722 40.5253L35.5129 39.7691C35.2901 39.6394 35.1341 39.4018 35.1341 39.1425V38.1487L33.9531 38.8184V39.8123C33.9531 40.0716 34.0868 40.3092 34.3319 40.4388L36.8945 41.8648C37.1173 41.9944 37.407 41.9944 37.6521 41.8648L40.2146 40.4388C40.4375 40.3092 40.5935 40.0716 40.5935 39.8123V36.9388C40.5935 36.6795 40.4598 36.4419 40.2146 36.3122L37.6298 34.8647Z" fill="white"/>
<defs>
<linearGradient id="paint0_linear_21761_36539" x1="39.8356" y1="10.3994" x2="7.58317" y2="37.5365" gradientUnits="userSpaceOnUse">
<stop stop-color="#B6509E"/>
<stop offset="1" stop-color="#2EBAC6"/>
</linearGradient>
<clipPath id="clip0_21761_36539">
<rect width="43.3548" height="43.3548" fill="white" transform="translate(2 2.32227)"/>
</clipPath>
<clipPath id="clip1_21761_36539">
<rect width="14.8645" height="14.8645" fill="white" transform="translate(27.2775 28.9551)"/>
</clipPath>
</defs>
</svg>
