<svg width="48" height="48" viewBox="0 0 48 48" fill="none" xmlns="http://www.w3.org/2000/svg">
<mask id="mask0_12917_116075" style="mask-type:alpha" maskUnits="userSpaceOnUse" x="0" y="0" width="48" height="48">
<rect width="48" height="48" fill="#D9D9D9"/>
</mask>
<g mask="url(#mask0_12917_116075)">
</g>
<g clip-path="url(#clip0_12917_116075)">
<path d="M21.6774 45.6761C33.6495 45.6761 43.3548 35.9708 43.3548 23.9987C43.3548 12.0266 33.6495 2.32129 21.6774 2.32129C9.7053 2.32129 0 12.0266 0 23.9987C0 35.9708 9.7053 45.6761 21.6774 45.6761Z" fill="#8247E5"/>
<path d="M28.8525 19.3608C28.3326 19.0583 27.6566 19.0583 27.0847 19.3608L23.0292 21.6798L20.2735 23.1921L16.218 25.5111C15.6981 25.8136 15.0222 25.8136 14.4502 25.5111L11.2266 23.6963C10.7067 23.3938 10.3427 22.8393 10.3427 22.2343V18.655C10.3427 18.0501 10.6547 17.4955 11.2266 17.1931L14.3982 15.4286C14.9181 15.1261 15.5941 15.1261 16.166 15.4286L19.3376 17.1931C19.8576 17.4955 20.2215 18.0501 20.2215 18.655V20.974L22.9772 19.4112V17.0922C22.9772 16.4873 22.6652 15.9327 22.0933 15.6302L16.218 12.303C15.6981 12.0006 15.0222 12.0006 14.4502 12.303L8.47094 15.6302C7.89899 15.9327 7.58704 16.4873 7.58704 17.0922V23.7971C7.58704 24.4021 7.89899 24.9566 8.47094 25.259L14.4502 28.5863C14.9702 28.8888 15.6461 28.8888 16.218 28.5863L20.2735 26.3177L23.0292 24.7549L27.0847 22.4864C27.6046 22.1839 28.2806 22.1839 28.8525 22.4864L32.0241 24.2508C32.544 24.5533 32.908 25.1078 32.908 25.7128V29.292C32.908 29.897 32.596 30.4515 32.0241 30.754L28.8525 32.5689C28.3326 32.8714 27.6566 32.8714 27.0847 32.5689L23.9131 30.8044C23.3932 30.502 23.0292 29.9474 23.0292 29.3425V27.0235L20.2735 28.5863V30.9053C20.2735 31.5102 20.5855 32.0648 21.1574 32.3672L27.1367 35.6945C27.6566 35.9969 28.3326 35.9969 28.9045 35.6945L34.8838 32.3672C35.4037 32.0648 35.7677 31.5102 35.7677 30.9053V24.2004C35.7677 23.5954 35.4557 23.0409 34.8838 22.7384L28.8525 19.3608Z" fill="white"/>
</g>
<path fill-rule="evenodd" clip-rule="evenodd" d="M31.1402 27.4959C32.1188 26.9636 33.3005 26.9636 34.279 27.4959L39.9521 30.5817C41.0091 31.1567 41.6671 32.2636 41.6671 33.4669V39.3071C41.6671 40.5103 41.0091 41.6173 39.9521 42.1923L34.279 45.2781C33.3005 45.8104 32.1188 45.8104 31.1402 45.2781L25.4672 42.1923C24.4102 41.6173 23.7522 40.5103 23.7522 39.3071L23.7522 33.4669C23.7522 32.2636 24.4102 31.1567 25.4672 30.5817L31.1402 27.4959Z" fill="#23282D"/>
<g clip-path="url(#clip1_12917_116075)">
<path d="M32.7097 43.8196C36.8144 43.8196 40.142 40.492 40.142 36.3873C40.142 32.2826 36.8144 28.9551 32.7097 28.9551C28.605 28.9551 25.2775 32.2826 25.2775 36.3873C25.2775 40.492 28.605 43.8196 32.7097 43.8196Z" fill="#23282D"/>
</g>
<path d="M35.6298 34.8651C35.407 34.7355 35.1173 34.7355 34.8722 34.8651L33.1341 35.859L31.9531 36.5072L30.215 37.501C29.9922 37.6306 29.7025 37.6306 29.4574 37.501L28.0759 36.7232C27.853 36.5936 27.6971 36.3559 27.6971 36.0967V34.5627C27.6971 34.3034 27.8308 34.0657 28.0759 33.9361L29.4351 33.1799C29.658 33.0503 29.9476 33.0503 30.1928 33.1799L31.552 33.9361C31.7749 34.0657 31.9308 34.3034 31.9308 34.5627V35.5565L33.1118 34.8868V33.8929C33.1118 33.6336 32.9781 33.396 32.733 33.2663L30.215 31.8404C29.9922 31.7108 29.7025 31.7108 29.4574 31.8404L26.8949 33.2663C26.6497 33.396 26.5161 33.6336 26.5161 33.8929V36.7664C26.5161 37.0257 26.6497 37.2633 26.8949 37.393L29.4574 38.8189C29.6803 38.9486 29.9699 38.9486 30.215 38.8189L31.9531 37.8467L33.1341 37.1769L34.8722 36.2047C35.095 36.075 35.3847 36.075 35.6298 36.2047L36.9891 36.9609C37.2119 37.0905 37.3679 37.3281 37.3679 37.5874V39.1214C37.3679 39.3807 37.2342 39.6183 36.9891 39.748L35.6298 40.5258C35.407 40.6554 35.1173 40.6554 34.8722 40.5258L33.5129 39.7696C33.2901 39.6399 33.1341 39.4023 33.1341 39.143V38.1492L31.9531 38.8189V39.8128C31.9531 40.072 32.0868 40.3097 32.3319 40.4393L34.8945 41.8653C35.1173 41.9949 35.407 41.9949 35.6521 41.8653L38.2146 40.4393C38.4375 40.3097 38.5935 40.072 38.5935 39.8128V36.9393C38.5935 36.68 38.4598 36.4423 38.2146 36.3127L35.6298 34.8651Z" fill="white"/>
<defs>
<clipPath id="clip0_12917_116075">
<rect width="43.3548" height="43.3548" fill="white" transform="translate(0 2.32178)"/>
</clipPath>
<clipPath id="clip1_12917_116075">
<rect width="14.8645" height="14.8645" fill="white" transform="translate(25.2775 28.9551)"/>
</clipPath>
</defs>
</svg>