<svg width="144" height="22" viewBox="0 0 144 22" fill="none" xmlns="http://www.w3.org/2000/svg">
<path d="M24 6.2H35.956V8.16H31.056V16H28.9V8.16H24V6.2ZM47.6246 12.08H46.7426C46.7426 13.158 47.5826 14.04 48.6046 14.04H50.6626V16H48.6046C46.3926 16 44.5866 14.236 44.5866 12.08H39.8826V16H37.7266V9.14C37.7266 7.516 39.0846 6.2 40.7646 6.2H47.6246C49.3046 6.2 50.6626 7.516 50.6626 9.14C50.6626 10.764 49.3046 12.08 47.6246 12.08ZM39.8826 9.14V10.12H47.6246C48.1146 10.12 48.5066 9.672 48.5066 9.14C48.5066 8.594 48.1146 8.16 47.6246 8.16H40.7646C40.2746 8.16 39.8826 8.594 39.8826 9.14ZM56.4418 6.2H60.3618C62.5738 6.2 64.3798 7.95 64.3798 10.12V16H62.2238V13.06H54.5798V16H52.4238V10.12C52.4238 7.95 54.2158 6.2 56.4418 6.2ZM54.5798 10.12V11.1H62.2238V10.12C62.2238 9.042 61.3838 8.16 60.3618 8.16H56.4418C55.4058 8.16 54.5798 9.042 54.5798 10.12ZM76.0484 16C73.8364 16 72.0304 14.236 72.0304 12.08V10.12C72.0304 9.042 71.1904 8.16 70.1684 8.16H69.1884C68.6984 8.16 68.3064 8.594 68.3064 9.14V16H66.1504V9.14C66.1504 7.516 67.5084 6.2 69.1884 6.2H70.1684C72.3804 6.2 74.1864 7.95 74.1864 10.12V12.08C74.1864 13.158 75.0264 14.04 76.0484 14.04C76.5384 14.04 76.9304 13.592 76.9304 13.06V6.2H79.0864V13.06C79.0864 14.684 77.7284 16 76.0484 16ZM80.8477 16V14.04H90.7457C91.2357 14.04 91.6277 13.592 91.6277 13.06C91.6277 12.514 91.2357 12.08 90.7457 12.08H83.8857C82.2197 12.08 80.8477 10.764 80.8477 9.14C80.8477 7.516 82.2197 6.2 83.8857 6.2H92.8037V8.16H83.8857C83.4097 8.16 83.0037 8.594 83.0037 9.14C83.0037 9.672 83.4097 10.12 83.8857 10.12H90.7457C92.4257 10.12 93.7837 11.436 93.7837 13.06C93.7837 14.684 92.4257 16 90.7457 16H80.8477ZM107.501 8.16H98.5829C98.0929 8.16 97.7009 8.594 97.7009 9.14V11.1H106.521V13.06H97.7009V16H95.5449V9.14C95.5449 7.516 96.9029 6.2 98.5829 6.2H107.501V8.16ZM111.427 12.08V13.06C111.427 13.592 111.819 14.04 112.309 14.04H121.227V16H112.309C110.629 16 109.271 14.684 109.271 13.06V9.14C109.271 7.516 110.629 6.2 112.309 6.2H121.227V8.16H112.309C111.819 8.16 111.427 8.594 111.427 9.14V10.12H120.247V12.08H111.427ZM132.896 12.08H132.014C132.014 13.158 132.854 14.04 133.876 14.04H135.934V16H133.876C131.664 16 129.858 14.236 129.858 12.08H125.154V16H122.998V9.14C122.998 7.516 124.356 6.2 126.036 6.2H132.896C134.576 6.2 135.934 7.516 135.934 9.14C135.934 10.764 134.576 12.08 132.896 12.08ZM125.154 9.14V10.12H132.896C133.386 10.12 133.778 9.672 133.778 9.14C133.778 8.594 133.386 8.16 132.896 8.16H126.036C125.546 8.16 125.154 8.594 125.154 9.14Z" fill="#23282D"/>
<path d="M142.5 12.766L143.143 12L143.909 12.6428L143.266 13.4088L142.5 12.766Z" fill="#25BEFF"/>
<path d="M25 20.5229H137.251L142 14.2729" stroke="#25BEFF"/>
<path d="M1.77778 7.22222L4 5H8H16V13V17L14.2222 18.7778L12 21H8H0V13V9L1.77778 7.22222Z" fill="#25BEFF"/>
<g clip-path="url(#clip0_42_2321)">
<path d="M8 11H9.25V8L13 11.75L9.25 15.5V13H6.5V10.25L3 14L6.5 18V15H7.75" stroke="white" stroke-linecap="square"/>
</g>
<defs>
<clipPath id="clip0_42_2321">
<rect width="12" height="12" fill="white" transform="translate(2 7)"/>
</clipPath>
</defs>
</svg>
